<?xml version="1.0" encoding="UTF-8"?>
<svg xmlns="http://www.w3.org/2000/svg" xmlns:xlink="http://www.w3.org/1999/xlink" viewBox="0 0 96 96" width="96px" height="96px">
<g id="surface32299342">
<path style="fill-rule:nonzero;fill:rgb(100%,25.490198%,78.431374%);fill-opacity:1;stroke-width:3;stroke-linecap:butt;stroke-linejoin:round;stroke:rgb(0%,0%,0%);stroke-opacity:1;stroke-miterlimit:10;" d="M 21.502336 35.834359 C 21.502336 27.917216 27.917216 21.502336 35.834359 21.502336 L 136.165644 21.502336 C 144.082788 21.502336 150.497668 27.917216 150.497668 35.834359 L 150.497668 136.165644 C 150.497668 144.082788 144.082788 150.497668 136.165644 150.497668 L 35.834359 150.497668 C 27.917216 150.497668 21.502336 144.082788 21.502336 136.165644 Z M 21.502336 35.834359 " transform="matrix(0.548651,0,0,0.548651,0.816,0.816)"/>
<path style="fill-rule:nonzero;fill:rgb(8.627451%,0.784314%,4.313726%);fill-opacity:1;stroke-width:3;stroke-linecap:butt;stroke-linejoin:round;stroke:rgb(0%,0%,0%);stroke-opacity:1;stroke-miterlimit:10;" d="M 139.74687 32.253133 L 139.74687 139.74687 L 32.253133 139.74687 L 32.253133 32.253133 Z M 61.557957 60.240806 L 49.767678 60.240806 L 61.771549 85.50874 L 49.518487 111.196739 L 61.451161 111.196739 L 68.41426 93.383165 L 75.412958 111.196739 L 87.345631 111.196739 L 75.09969 85.50874 L 87.067962 60.240806 L 75.277683 60.240806 L 68.41426 77.741111 Z M 89.830418 91.11197 L 89.830418 93.981223 C 89.873137 99.862123 90.941097 104.311956 93.027179 107.352083 C 95.12038 110.385089 98.146267 111.901592 102.111959 111.901592 C 105.308719 111.901592 107.921661 110.385089 109.950785 107.352083 L 110.406448 111.196739 L 119.398672 111.196739 L 119.398672 57.44987 L 109.431045 57.44987 L 109.431045 76.41684 C 107.494477 73.896455 105.066648 72.636262 102.147557 72.636262 C 98.132028 72.636262 95.077662 74.159885 92.977341 77.214251 C 90.877019 80.275736 89.830418 84.903563 89.830418 91.11197 Z M 99.769566 90.976695 C 99.769566 87.217476 100.19675 84.604534 101.029759 83.130749 C 101.869888 81.664084 103.201278 80.930751 105.01681 80.930751 C 106.974737 80.930751 108.448522 81.863437 109.431045 83.728807 L 109.431045 101.01552 C 108.427162 102.759854 106.946258 103.635582 104.981211 103.635582 C 103.094482 103.635582 101.755972 102.895129 100.958562 101.414225 C 100.168271 99.93332 99.769566 97.327498 99.769566 93.589638 Z M 99.769566 90.976695 " transform="matrix(0.548651,0,0,0.548651,0.816,0.816)"/>
<path style=" stroke:none;fill-rule:nonzero;fill:rgb(100%,25.490198%,78.431374%);fill-opacity:1;" d="M 12.613281 20.476562 C 12.613281 16.132812 16.132812 12.613281 20.476562 12.613281 L 75.523438 12.613281 C 79.867188 12.613281 83.386719 16.132812 83.386719 20.476562 L 83.386719 75.523438 C 83.386719 79.867188 79.867188 83.386719 75.523438 83.386719 L 20.476562 83.386719 C 16.132812 83.386719 12.613281 79.867188 12.613281 75.523438 Z M 12.613281 20.476562 "/>
<path style=" stroke:none;fill-rule:nonzero;fill:rgb(8.627451%,0.784314%,4.313726%);fill-opacity:1;" d="M 18.511719 18.511719 L 18.511719 77.488281 L 77.488281 77.488281 L 77.488281 18.511719 Z M 38.351562 43.46875 L 42.117188 33.867188 L 48.585938 33.867188 L 42.019531 47.730469 L 48.738281 61.824219 L 42.191406 61.824219 L 38.351562 52.050781 L 34.53125 61.824219 L 27.984375 61.824219 L 34.707031 47.730469 L 28.121094 33.867188 L 34.589844 33.867188 Z M 50.101562 50.804688 C 50.101562 47.398438 50.675781 44.859375 51.828125 43.179688 C 52.980469 41.503906 54.65625 40.667969 56.859375 40.667969 C 58.460938 40.667969 59.792969 41.359375 60.855469 42.742188 L 60.855469 32.335938 L 66.324219 32.335938 L 66.324219 61.824219 L 61.390625 61.824219 L 61.140625 59.714844 C 60.027344 61.378906 58.59375 62.210938 56.839844 62.210938 C 54.664062 62.210938 53.003906 61.378906 51.855469 59.714844 C 50.710938 58.046875 50.125 55.605469 50.101562 52.378906 Z M 55.554688 52.164062 C 55.554688 54.214844 55.773438 55.644531 56.207031 56.457031 C 56.644531 57.269531 57.378906 57.675781 58.414062 57.675781 C 59.492188 57.675781 60.304688 57.195312 60.855469 56.238281 L 60.855469 46.753906 C 60.316406 45.730469 59.507812 45.21875 58.433594 45.21875 C 57.4375 45.21875 56.707031 45.621094 56.246094 46.425781 C 55.789062 47.234375 55.554688 48.667969 55.554688 50.730469 Z M 55.554688 52.164062 "/>
</g>
</svg>
