<?xml version="1.0" encoding="UTF-8"?>
<svg xmlns="http://www.w3.org/2000/svg" xmlns:xlink="http://www.w3.org/1999/xlink" viewBox="0 0 48 48" width="48px" height="48px">
<g id="surface31786096">
<path style="fill-rule:evenodd;fill:rgb(15.686275%,20.784314%,57.647061%);fill-opacity:1;stroke-width:2;stroke-linecap:butt;stroke-linejoin:round;stroke:rgb(0%,0%,0%);stroke-opacity:1;stroke-miterlimit:10;" d="M 82.065442 11.78125 C 84.499772 10.408401 87.500224 10.408401 89.920401 11.78125 C 101.950519 18.518116 138.125789 38.827784 150.155907 45.578803 C 152.590237 46.937499 154.07631 49.4709 154.07631 52.188291 C 154.07631 65.690329 154.07631 106.309667 154.07631 119.797552 C 154.07631 122.529096 152.590237 125.048344 150.155907 126.421193 C 138.125789 133.172212 101.950519 153.481881 89.920401 160.218746 C 87.500224 161.591595 84.499772 161.591595 82.065442 160.218746 C 70.049478 153.481881 33.874207 133.172212 21.844089 126.421193 C 19.40976 125.048344 17.923686 122.529096 17.923686 119.811705 C 17.923686 106.309667 17.923686 65.690329 17.923686 52.202444 C 17.923686 49.4709 19.40976 46.951652 21.844089 45.578803 C 33.860054 38.827784 70.049478 18.518116 82.065442 11.78125 Z M 82.065442 11.78125 " transform="matrix(0.276,0,0,0.276,0.264,0.264)"/>
<path style="fill-rule:evenodd;fill:rgb(36.078432%,41.960785%,75.294119%);fill-opacity:1;stroke-width:2;stroke-linecap:butt;stroke-linejoin:round;stroke:rgb(0%,0%,0%);stroke-opacity:1;stroke-miterlimit:10;" d="M 18.99932 123.279209 C 18.051064 122.005432 17.923686 120.788267 17.923686 119.160663 C 17.923686 105.743544 17.923686 65.364808 17.923686 51.947689 C 17.923686 49.230298 19.40976 46.725203 21.829936 45.366507 C 33.817594 38.657948 69.865488 18.461503 81.853146 11.752944 C 84.273322 10.394248 87.556837 10.422554 89.991166 11.78125 C 101.964672 18.489809 137.89934 38.516417 149.886998 45.224976 C 150.849408 45.762793 151.585368 46.413835 152.250563 47.277173 Z M 18.99932 123.279209 " transform="matrix(0.276,0,0,0.276,0.264,0.264)"/>
<path style="fill-rule:evenodd;fill:rgb(100%,100%,100%);fill-opacity:1;stroke-width:2;stroke-linecap:butt;stroke-linejoin:round;stroke:rgb(0%,0%,0%);stroke-opacity:1;stroke-miterlimit:10;" d="M 85.999998 35.827332 C 113.683421 35.827332 136.172665 58.316575 136.172665 85.999998 C 136.172665 113.683421 113.683421 136.172665 85.999998 136.172665 C 58.316575 136.172665 35.827332 113.683421 35.827332 85.999998 C 35.827332 58.316575 58.316575 35.827332 85.999998 35.827332 Z M 60.920741 85.999998 C 60.920741 99.84171 72.158286 111.079255 85.999998 111.079255 C 99.84171 111.079255 111.079255 99.84171 111.079255 85.999998 C 111.079255 72.158286 99.84171 60.920741 85.999998 60.920741 C 72.158286 60.920741 60.920741 72.158286 60.920741 85.999998 Z M 60.920741 85.999998 " transform="matrix(0.276,0,0,0.276,0.264,0.264)"/>
<path style="fill-rule:evenodd;fill:rgb(22.352941%,28.627452%,67.058825%);fill-opacity:1;stroke-width:2;stroke-linecap:butt;stroke-linejoin:round;stroke:rgb(0%,0%,0%);stroke-opacity:1;stroke-miterlimit:10;" d="M 152.23641 47.319632 C 154.090463 49.046308 154.048004 51.650474 154.048004 53.716824 C 154.048004 67.30378 153.934779 105.984146 154.07631 119.585255 C 154.104616 121.000563 153.623411 122.50079 152.929911 123.618883 L 84.542231 85.999998 Z M 152.23641 47.319632 " transform="matrix(0.276,0,0,0.276,0.264,0.264)"/>
<path style=" stroke:none;fill-rule:evenodd;fill:rgb(15.686275%,20.784314%,57.647061%);fill-opacity:1;" d="M 22.914062 3.515625 C 23.585938 3.136719 24.414062 3.136719 25.082031 3.515625 C 28.402344 5.375 38.386719 10.980469 41.707031 12.84375 C 42.378906 13.21875 42.789062 13.917969 42.789062 14.667969 C 42.789062 18.394531 42.789062 29.605469 42.789062 33.328125 C 42.789062 34.082031 42.378906 34.777344 41.707031 35.15625 C 38.386719 37.019531 28.402344 42.625 25.082031 44.484375 C 24.414062 44.863281 23.585938 44.863281 22.914062 44.484375 C 19.597656 42.625 9.613281 37.019531 6.292969 35.15625 C 5.621094 34.777344 5.210938 34.082031 5.210938 33.332031 C 5.210938 29.605469 5.210938 18.394531 5.210938 14.671875 C 5.210938 13.917969 5.621094 13.222656 6.292969 12.84375 C 9.609375 10.980469 19.597656 5.375 22.914062 3.515625 Z M 22.914062 3.515625 "/>
<path style=" stroke:none;fill-rule:evenodd;fill:rgb(36.078432%,41.960785%,75.294119%);fill-opacity:1;" d="M 5.507812 34.289062 C 5.246094 33.9375 5.210938 33.601562 5.210938 33.152344 C 5.210938 29.449219 5.210938 18.304688 5.210938 14.601562 C 5.210938 13.851562 5.621094 13.160156 6.289062 12.785156 C 9.597656 10.933594 19.546875 5.359375 22.855469 3.507812 C 23.523438 3.132812 24.429688 3.140625 25.101562 3.515625 C 28.40625 5.367188 38.324219 10.894531 41.632812 12.746094 C 41.898438 12.894531 42.101562 13.074219 42.285156 13.3125 Z M 5.507812 34.289062 "/>
<path style=" stroke:none;fill-rule:evenodd;fill:rgb(100%,100%,100%);fill-opacity:1;" d="M 24 10.152344 C 31.640625 10.152344 37.847656 16.359375 37.847656 24 C 37.847656 31.640625 31.640625 37.847656 24 37.847656 C 16.359375 37.847656 10.152344 31.640625 10.152344 24 C 10.152344 16.359375 16.359375 10.152344 24 10.152344 Z M 24 17.078125 C 27.820312 17.078125 30.921875 20.179688 30.921875 24 C 30.921875 27.820312 27.820312 30.921875 24 30.921875 C 20.179688 30.921875 17.078125 27.820312 17.078125 24 C 17.078125 20.179688 20.179688 17.078125 24 17.078125 Z M 24 17.078125 "/>
<path style=" stroke:none;fill-rule:evenodd;fill:rgb(22.352941%,28.627452%,67.058825%);fill-opacity:1;" d="M 42.28125 13.324219 C 42.792969 13.800781 42.78125 14.519531 42.78125 15.089844 C 42.78125 18.839844 42.75 29.515625 42.789062 33.269531 C 42.796875 33.660156 42.664062 34.074219 42.472656 34.382812 L 23.597656 24 Z M 42.28125 13.324219 "/>
</g>
</svg>
