<svg xmlns="http://www.w3.org/2000/svg" x="0px" y="0px"
width="48" height="48"
viewBox="0 0 172 172"
style=" fill:#000000;"><g transform="translate(1.978,1.978) scale(0.977,0.977)"><g fill="none" fill-rule="nonzero" stroke="none" stroke-width="none" stroke-linecap="butt" stroke-linejoin="none" stroke-miterlimit="10" stroke-dasharray="" stroke-dashoffset="0" font-family="none" font-weight="none" font-size="none" text-anchor="none" style="mix-blend-mode: normal"><g stroke="#000000" stroke-width="4" stroke-linejoin="round"><path d="M146.91667,17.91667l-10.75,121.83333l-50.16667,14.33333l-50.16667,-14.33333l-10.75,-121.83333z" fill="#0277bd"></path><path d="M135.09167,28.66667l-8.95833,102.84167l-40.13333,11.46667v-114.30833z" fill="#039be5"></path><path d="M116.81667,75.25l-2.50833,41.20833l-28.30833,9.31667v-15.05l14.69167,-5.01667l1.075,-16.125h-15.76667v-14.33333h16.48333l1.075,-14.33333h-17.55833v-14.33333h32.60833z" fill="#ffffff"></path><path d="M86,46.58333v14.33333h-31.89167l-1.075,-14.33333zM86,75.25v14.33333h-15.76667l-0.71667,-14.33333zM71.30833,105.70833l14.69167,5.01667v15.05l-28.30833,-9.31667l-1.075,-19.70833h14.33333z" fill="#eeeeee"></path></g><path d="M0,172v-172h172v172z" fill="none" stroke="none" stroke-width="1" stroke-linejoin="miter"></path><g stroke="none" stroke-width="1" stroke-linejoin="miter"><path d="M146.91667,17.91667h-121.83333l10.75,121.83333l50.16667,14.33333l50.16667,-14.33333l10.75,-121.83333z" fill="#0277bd"></path><path d="M86,28.66667v114.30833l40.13333,-11.46667l8.95833,-102.84167z" fill="#039be5"></path><path d="M118.60833,46.58333h-32.60833v14.33333h17.55833l-1.075,14.33333h-16.48333v14.33333h15.76667l-1.075,16.125l-14.69167,5.01667v15.05l28.30833,-9.31667l2.50833,-41.20833v0z" fill="#ffffff"></path><path d="M86,46.58333v14.33333h-31.89167l-1.075,-14.33333zM69.51667,75.25l0.71667,14.33333h15.76667v-14.33333zM70.95,96.75h-14.33333l1.075,19.70833l28.30833,9.31667v-15.05l-14.69167,-5.01667z" fill="#eeeeee"></path></g><path d="" fill="none" stroke="none" stroke-width="1" stroke-linejoin="miter"></path></g></g></svg>