<svg xmlns:xlink="http://www.w3.org/1999/xlink" xmlns="http://www.w3.org/2000/svg" viewBox="0 0 35 42" focusable="false" class="chakra-icon css-p2gh8l" width="35"  height="42" ><g clip-path="url(#clip0)" fill="none"><path fill="#FFFFFF" fill-rule="evenodd" clip-rule="evenodd" d="M25.0363 8.95168V6.18876C26.1397 5.6087 26.7176 4.53146 26.7176 3.31573C26.7176 1.49157 25.2297 0 23.4108 0C21.5931 0 20.1053 1.49157 20.1053 3.31459C20.1053 4.53032 20.6285 5.58032 21.7308 6.16038V8.95168H11.8118V6.16038C12.306 5.86682 12.7156 5.45049 13.0007 4.95196C13.2858 4.45343 13.4366 3.88971 13.4384 3.31573C13.4372 1.49157 11.9483 0 10.1305 0C8.31281 0 6.82496 1.49157 6.82496 3.31459C6.82403 3.89953 6.97931 4.47414 7.2748 4.9793C7.57029 5.48447 7.99533 5.90194 8.50618 6.18876V8.95168H25.0363Z"></path><path fill="#FFFFFF" d="M30.0175 11.3513C32.2288 11.3513 34.0192 13.1255 34.125 15.2119V42L30.0175 37.6183H4.00286C1.79043 37.6183 0 35.9474 0 33.7555V15.2119C0 13.1255 1.79043 11.3513 4.00286 11.3513H30.0175V11.3513ZM13.0813 20.4324H9.66875C8.73031 20.4324 7.9625 21.1986 7.9625 22.1351V25.5405C7.9625 26.477 8.73031 27.2432 9.66875 27.2432H13.0813C14.0197 27.2432 14.7875 26.477 14.7875 25.5405V22.1351C14.7875 21.1986 14.0197 20.4324 13.0813 20.4324ZM24.4563 20.4324H21.0438C20.1053 20.4324 19.3375 21.1986 19.3375 22.1351V25.5405C19.3375 26.477 20.1053 27.2432 21.0438 27.2432H24.4563C25.3947 27.2432 26.1625 26.477 26.1625 25.5405V22.1351C26.1625 21.1986 25.3947 20.4324 24.4563 20.4324Z"></path></g><defs><clipPath id="clip0"><rect width="34.125" height="42" fill="currentColor"></rect></clipPath></defs></svg>