<svg width="389" height="389" viewBox="0 0 389 389" fill="none" xmlns="http://www.w3.org/2000/svg">
<path d="M7.48077 14.9615C11.6123 14.9615 14.9615 11.6123 14.9615 7.48077C14.9615 3.34925 11.6123 0 7.48077 0C3.34925 0 0 3.34925 0 7.48077C0 11.6123 3.34925 14.9615 7.48077 14.9615Z" fill="#444444"/>
<path d="M32.4167 39.8974C36.5482 39.8974 39.8974 36.5482 39.8974 32.4167C39.8974 28.2852 36.5482 24.9359 32.4167 24.9359C28.2852 24.9359 24.9359 28.2852 24.9359 32.4167C24.9359 36.5482 28.2852 39.8974 32.4167 39.8974Z" fill="#444444"/>
<path d="M57.3526 14.9615C61.4841 14.9615 64.8333 11.6123 64.8333 7.48077C64.8333 3.34925 61.4841 0 57.3526 0C53.221 0 49.8718 3.34925 49.8718 7.48077C49.8718 11.6123 53.221 14.9615 57.3526 14.9615Z" fill="#444444"/>
<path d="M82.2885 39.8974C86.42 39.8974 89.7692 36.5482 89.7692 32.4167C89.7692 28.2852 86.42 24.9359 82.2885 24.9359C78.1569 24.9359 74.8077 28.2852 74.8077 32.4167C74.8077 36.5482 78.1569 39.8974 82.2885 39.8974Z" fill="#444444"/>
<path d="M107.224 14.9615C111.356 14.9615 114.705 11.6123 114.705 7.48077C114.705 3.34925 111.356 0 107.224 0C103.093 0 99.7436 3.34925 99.7436 7.48077C99.7436 11.6123 103.093 14.9615 107.224 14.9615Z" fill="#444444"/>
<path d="M132.16 39.8974C136.292 39.8974 139.641 36.5482 139.641 32.4167C139.641 28.2852 136.292 24.9359 132.16 24.9359C128.029 24.9359 124.679 28.2852 124.679 32.4167C124.679 36.5482 128.029 39.8974 132.16 39.8974Z" fill="#444444"/>
<path d="M157.096 14.9615C161.228 14.9615 164.577 11.6123 164.577 7.48077C164.577 3.34925 161.228 0 157.096 0C152.965 0 149.615 3.34925 149.615 7.48077C149.615 11.6123 152.965 14.9615 157.096 14.9615Z" fill="#444444"/>
<path d="M182.032 39.8974C186.164 39.8974 189.513 36.5482 189.513 32.4167C189.513 28.2852 186.164 24.9359 182.032 24.9359C177.901 24.9359 174.551 28.2852 174.551 32.4167C174.551 36.5482 177.901 39.8974 182.032 39.8974Z" fill="#444444"/>
<path d="M206.968 14.9615C211.099 14.9615 214.449 11.6123 214.449 7.48077C214.449 3.34925 211.099 0 206.968 0C202.836 0 199.487 3.34925 199.487 7.48077C199.487 11.6123 202.836 14.9615 206.968 14.9615Z" fill="#444444"/>
<path d="M231.904 39.8974C236.035 39.8974 239.385 36.5482 239.385 32.4167C239.385 28.2852 236.035 24.9359 231.904 24.9359C227.772 24.9359 224.423 28.2852 224.423 32.4167C224.423 36.5482 227.772 39.8974 231.904 39.8974Z" fill="#444444"/>
<path d="M256.84 14.9615C260.971 14.9615 264.321 11.6123 264.321 7.48077C264.321 3.34925 260.971 0 256.84 0C252.708 0 249.359 3.34925 249.359 7.48077C249.359 11.6123 252.708 14.9615 256.84 14.9615Z" fill="#444444"/>
<path d="M281.776 39.8974C285.907 39.8974 289.256 36.5482 289.256 32.4167C289.256 28.2852 285.907 24.9359 281.776 24.9359C277.644 24.9359 274.295 28.2852 274.295 32.4167C274.295 36.5482 277.644 39.8974 281.776 39.8974Z" fill="#444444"/>
<path d="M306.712 14.9615C310.843 14.9615 314.192 11.6123 314.192 7.48077C314.192 3.34925 310.843 0 306.712 0C302.58 0 299.231 3.34925 299.231 7.48077C299.231 11.6123 302.58 14.9615 306.712 14.9615Z" fill="#444444"/>
<path d="M331.647 39.8974C335.779 39.8974 339.128 36.5482 339.128 32.4167C339.128 28.2852 335.779 24.9359 331.647 24.9359C327.516 24.9359 324.167 28.2852 324.167 32.4167C324.167 36.5482 327.516 39.8974 331.647 39.8974Z" fill="#444444"/>
<path d="M356.583 14.9615C360.715 14.9615 364.064 11.6123 364.064 7.48077C364.064 3.34925 360.715 0 356.583 0C352.452 0 349.103 3.34925 349.103 7.48077C349.103 11.6123 352.452 14.9615 356.583 14.9615Z" fill="#444444"/>
<path d="M381.519 39.8974C385.651 39.8974 389 36.5482 389 32.4167C389 28.2852 385.651 24.9359 381.519 24.9359C377.388 24.9359 374.038 28.2852 374.038 32.4167C374.038 36.5482 377.388 39.8974 381.519 39.8974Z" fill="#444444"/>
<path d="M7.48077 64.8333C11.6123 64.8333 14.9615 61.4841 14.9615 57.3526C14.9615 53.221 11.6123 49.8718 7.48077 49.8718C3.34925 49.8718 0 53.221 0 57.3526C0 61.4841 3.34925 64.8333 7.48077 64.8333Z" fill="#444444"/>
<path d="M32.4167 89.7692C36.5482 89.7692 39.8974 86.42 39.8974 82.2885C39.8974 78.157 36.5482 74.8077 32.4167 74.8077C28.2852 74.8077 24.9359 78.157 24.9359 82.2885C24.9359 86.42 28.2852 89.7692 32.4167 89.7692Z" fill="#444444"/>
<path d="M57.3526 64.8333C61.4841 64.8333 64.8333 61.4841 64.8333 57.3526C64.8333 53.221 61.4841 49.8718 57.3526 49.8718C53.221 49.8718 49.8718 53.221 49.8718 57.3526C49.8718 61.4841 53.221 64.8333 57.3526 64.8333Z" fill="#444444"/>
<path d="M82.2885 89.7692C86.42 89.7692 89.7692 86.42 89.7692 82.2885C89.7692 78.157 86.42 74.8077 82.2885 74.8077C78.1569 74.8077 74.8077 78.157 74.8077 82.2885C74.8077 86.42 78.1569 89.7692 82.2885 89.7692Z" fill="#444444"/>
<path d="M107.224 64.8333C111.356 64.8333 114.705 61.4841 114.705 57.3526C114.705 53.221 111.356 49.8718 107.224 49.8718C103.093 49.8718 99.7436 53.221 99.7436 57.3526C99.7436 61.4841 103.093 64.8333 107.224 64.8333Z" fill="#444444"/>
<path d="M132.16 89.7692C136.292 89.7692 139.641 86.42 139.641 82.2885C139.641 78.157 136.292 74.8077 132.16 74.8077C128.029 74.8077 124.679 78.157 124.679 82.2885C124.679 86.42 128.029 89.7692 132.16 89.7692Z" fill="#444444"/>
<path d="M157.096 64.8333C161.228 64.8333 164.577 61.4841 164.577 57.3526C164.577 53.221 161.228 49.8718 157.096 49.8718C152.965 49.8718 149.615 53.221 149.615 57.3526C149.615 61.4841 152.965 64.8333 157.096 64.8333Z" fill="#444444"/>
<path d="M182.032 89.7692C186.164 89.7692 189.513 86.42 189.513 82.2885C189.513 78.157 186.164 74.8077 182.032 74.8077C177.901 74.8077 174.551 78.157 174.551 82.2885C174.551 86.42 177.901 89.7692 182.032 89.7692Z" fill="#444444"/>
<path d="M206.968 64.8333C211.099 64.8333 214.449 61.4841 214.449 57.3526C214.449 53.221 211.099 49.8718 206.968 49.8718C202.836 49.8718 199.487 53.221 199.487 57.3526C199.487 61.4841 202.836 64.8333 206.968 64.8333Z" fill="#444444"/>
<path d="M231.904 89.7692C236.035 89.7692 239.385 86.42 239.385 82.2885C239.385 78.157 236.035 74.8077 231.904 74.8077C227.772 74.8077 224.423 78.157 224.423 82.2885C224.423 86.42 227.772 89.7692 231.904 89.7692Z" fill="#444444"/>
<path d="M256.84 64.8333C260.971 64.8333 264.321 61.4841 264.321 57.3526C264.321 53.221 260.971 49.8718 256.84 49.8718C252.708 49.8718 249.359 53.221 249.359 57.3526C249.359 61.4841 252.708 64.8333 256.84 64.8333Z" fill="#444444"/>
<path d="M281.776 89.7692C285.907 89.7692 289.256 86.42 289.256 82.2885C289.256 78.157 285.907 74.8077 281.776 74.8077C277.644 74.8077 274.295 78.157 274.295 82.2885C274.295 86.42 277.644 89.7692 281.776 89.7692Z" fill="#444444"/>
<path d="M306.712 64.8333C310.843 64.8333 314.192 61.4841 314.192 57.3526C314.192 53.221 310.843 49.8718 306.712 49.8718C302.58 49.8718 299.231 53.221 299.231 57.3526C299.231 61.4841 302.58 64.8333 306.712 64.8333Z" fill="#444444"/>
<path d="M331.647 89.7692C335.779 89.7692 339.128 86.42 339.128 82.2885C339.128 78.157 335.779 74.8077 331.647 74.8077C327.516 74.8077 324.167 78.157 324.167 82.2885C324.167 86.42 327.516 89.7692 331.647 89.7692Z" fill="#444444"/>
<path d="M356.583 64.8333C360.715 64.8333 364.064 61.4841 364.064 57.3526C364.064 53.221 360.715 49.8718 356.583 49.8718C352.452 49.8718 349.103 53.221 349.103 57.3526C349.103 61.4841 352.452 64.8333 356.583 64.8333Z" fill="#444444"/>
<path d="M381.519 89.7692C385.651 89.7692 389 86.42 389 82.2885C389 78.157 385.651 74.8077 381.519 74.8077C377.388 74.8077 374.038 78.157 374.038 82.2885C374.038 86.42 377.388 89.7692 381.519 89.7692Z" fill="#444444"/>
<path d="M7.48077 114.705C11.6123 114.705 14.9615 111.356 14.9615 107.224C14.9615 103.093 11.6123 99.7436 7.48077 99.7436C3.34925 99.7436 0 103.093 0 107.224C0 111.356 3.34925 114.705 7.48077 114.705Z" fill="#444444"/>
<path d="M32.4167 139.641C36.5482 139.641 39.8974 136.292 39.8974 132.16C39.8974 128.029 36.5482 124.679 32.4167 124.679C28.2852 124.679 24.9359 128.029 24.9359 132.16C24.9359 136.292 28.2852 139.641 32.4167 139.641Z" fill="#444444"/>
<path d="M57.3526 114.705C61.4841 114.705 64.8333 111.356 64.8333 107.224C64.8333 103.093 61.4841 99.7436 57.3526 99.7436C53.221 99.7436 49.8718 103.093 49.8718 107.224C49.8718 111.356 53.221 114.705 57.3526 114.705Z" fill="#444444"/>
<path d="M82.2885 139.641C86.42 139.641 89.7692 136.292 89.7692 132.16C89.7692 128.029 86.42 124.679 82.2885 124.679C78.1569 124.679 74.8077 128.029 74.8077 132.16C74.8077 136.292 78.1569 139.641 82.2885 139.641Z" fill="#444444"/>
<path d="M107.224 114.705C111.356 114.705 114.705 111.356 114.705 107.224C114.705 103.093 111.356 99.7436 107.224 99.7436C103.093 99.7436 99.7436 103.093 99.7436 107.224C99.7436 111.356 103.093 114.705 107.224 114.705Z" fill="#444444"/>
<path d="M132.16 139.641C136.292 139.641 139.641 136.292 139.641 132.16C139.641 128.029 136.292 124.679 132.16 124.679C128.029 124.679 124.679 128.029 124.679 132.16C124.679 136.292 128.029 139.641 132.16 139.641Z" fill="#444444"/>
<path d="M157.096 114.705C161.228 114.705 164.577 111.356 164.577 107.224C164.577 103.093 161.228 99.7436 157.096 99.7436C152.965 99.7436 149.615 103.093 149.615 107.224C149.615 111.356 152.965 114.705 157.096 114.705Z" fill="#444444"/>
<path d="M182.032 139.641C186.164 139.641 189.513 136.292 189.513 132.16C189.513 128.029 186.164 124.679 182.032 124.679C177.901 124.679 174.551 128.029 174.551 132.16C174.551 136.292 177.901 139.641 182.032 139.641Z" fill="#444444"/>
<path d="M206.968 114.705C211.099 114.705 214.449 111.356 214.449 107.224C214.449 103.093 211.099 99.7436 206.968 99.7436C202.836 99.7436 199.487 103.093 199.487 107.224C199.487 111.356 202.836 114.705 206.968 114.705Z" fill="#444444"/>
<path d="M231.904 139.641C236.035 139.641 239.385 136.292 239.385 132.16C239.385 128.029 236.035 124.679 231.904 124.679C227.772 124.679 224.423 128.029 224.423 132.16C224.423 136.292 227.772 139.641 231.904 139.641Z" fill="#444444"/>
<path d="M256.84 114.705C260.971 114.705 264.321 111.356 264.321 107.224C264.321 103.093 260.971 99.7436 256.84 99.7436C252.708 99.7436 249.359 103.093 249.359 107.224C249.359 111.356 252.708 114.705 256.84 114.705Z" fill="#444444"/>
<path d="M281.776 139.641C285.907 139.641 289.256 136.292 289.256 132.16C289.256 128.029 285.907 124.679 281.776 124.679C277.644 124.679 274.295 128.029 274.295 132.16C274.295 136.292 277.644 139.641 281.776 139.641Z" fill="#444444"/>
<path d="M306.712 114.705C310.843 114.705 314.192 111.356 314.192 107.224C314.192 103.093 310.843 99.7436 306.712 99.7436C302.58 99.7436 299.231 103.093 299.231 107.224C299.231 111.356 302.58 114.705 306.712 114.705Z" fill="#444444"/>
<path d="M331.647 139.641C335.779 139.641 339.128 136.292 339.128 132.16C339.128 128.029 335.779 124.679 331.647 124.679C327.516 124.679 324.167 128.029 324.167 132.16C324.167 136.292 327.516 139.641 331.647 139.641Z" fill="#444444"/>
<path d="M356.583 114.705C360.715 114.705 364.064 111.356 364.064 107.224C364.064 103.093 360.715 99.7436 356.583 99.7436C352.452 99.7436 349.103 103.093 349.103 107.224C349.103 111.356 352.452 114.705 356.583 114.705Z" fill="#444444"/>
<path d="M381.519 139.641C385.651 139.641 389 136.292 389 132.16C389 128.029 385.651 124.679 381.519 124.679C377.388 124.679 374.038 128.029 374.038 132.16C374.038 136.292 377.388 139.641 381.519 139.641Z" fill="#444444"/>
<path d="M7.48077 164.577C11.6123 164.577 14.9615 161.228 14.9615 157.096C14.9615 152.965 11.6123 149.615 7.48077 149.615C3.34925 149.615 0 152.965 0 157.096C0 161.228 3.34925 164.577 7.48077 164.577Z" fill="#444444"/>
<path d="M32.4167 189.513C36.5482 189.513 39.8974 186.164 39.8974 182.032C39.8974 177.901 36.5482 174.551 32.4167 174.551C28.2852 174.551 24.9359 177.901 24.9359 182.032C24.9359 186.164 28.2852 189.513 32.4167 189.513Z" fill="#444444"/>
<path d="M57.3526 164.577C61.4841 164.577 64.8333 161.228 64.8333 157.096C64.8333 152.965 61.4841 149.615 57.3526 149.615C53.221 149.615 49.8718 152.965 49.8718 157.096C49.8718 161.228 53.221 164.577 57.3526 164.577Z" fill="#444444"/>
<path d="M82.2885 189.513C86.42 189.513 89.7692 186.164 89.7692 182.032C89.7692 177.901 86.42 174.551 82.2885 174.551C78.1569 174.551 74.8077 177.901 74.8077 182.032C74.8077 186.164 78.1569 189.513 82.2885 189.513Z" fill="#444444"/>
<path d="M107.224 164.577C111.356 164.577 114.705 161.228 114.705 157.096C114.705 152.965 111.356 149.615 107.224 149.615C103.093 149.615 99.7436 152.965 99.7436 157.096C99.7436 161.228 103.093 164.577 107.224 164.577Z" fill="#444444"/>
<path d="M132.16 189.513C136.292 189.513 139.641 186.164 139.641 182.032C139.641 177.901 136.292 174.551 132.16 174.551C128.029 174.551 124.679 177.901 124.679 182.032C124.679 186.164 128.029 189.513 132.16 189.513Z" fill="#444444"/>
<path d="M157.096 164.577C161.228 164.577 164.577 161.228 164.577 157.096C164.577 152.965 161.228 149.615 157.096 149.615C152.965 149.615 149.615 152.965 149.615 157.096C149.615 161.228 152.965 164.577 157.096 164.577Z" fill="#444444"/>
<path d="M182.032 189.513C186.164 189.513 189.513 186.164 189.513 182.032C189.513 177.901 186.164 174.551 182.032 174.551C177.901 174.551 174.551 177.901 174.551 182.032C174.551 186.164 177.901 189.513 182.032 189.513Z" fill="#444444"/>
<path d="M206.968 164.577C211.099 164.577 214.449 161.228 214.449 157.096C214.449 152.965 211.099 149.615 206.968 149.615C202.836 149.615 199.487 152.965 199.487 157.096C199.487 161.228 202.836 164.577 206.968 164.577Z" fill="#444444"/>
<path d="M231.904 189.513C236.035 189.513 239.385 186.164 239.385 182.032C239.385 177.901 236.035 174.551 231.904 174.551C227.772 174.551 224.423 177.901 224.423 182.032C224.423 186.164 227.772 189.513 231.904 189.513Z" fill="#444444"/>
<path d="M256.84 164.577C260.971 164.577 264.321 161.228 264.321 157.096C264.321 152.965 260.971 149.615 256.84 149.615C252.708 149.615 249.359 152.965 249.359 157.096C249.359 161.228 252.708 164.577 256.84 164.577Z" fill="#444444"/>
<path d="M281.776 189.513C285.907 189.513 289.256 186.164 289.256 182.032C289.256 177.901 285.907 174.551 281.776 174.551C277.644 174.551 274.295 177.901 274.295 182.032C274.295 186.164 277.644 189.513 281.776 189.513Z" fill="#444444"/>
<path d="M306.712 164.577C310.843 164.577 314.192 161.228 314.192 157.096C314.192 152.965 310.843 149.615 306.712 149.615C302.58 149.615 299.231 152.965 299.231 157.096C299.231 161.228 302.58 164.577 306.712 164.577Z" fill="#444444"/>
<path d="M331.647 189.513C335.779 189.513 339.128 186.164 339.128 182.032C339.128 177.901 335.779 174.551 331.647 174.551C327.516 174.551 324.167 177.901 324.167 182.032C324.167 186.164 327.516 189.513 331.647 189.513Z" fill="#444444"/>
<path d="M356.583 164.577C360.715 164.577 364.064 161.228 364.064 157.096C364.064 152.965 360.715 149.615 356.583 149.615C352.452 149.615 349.103 152.965 349.103 157.096C349.103 161.228 352.452 164.577 356.583 164.577Z" fill="#444444"/>
<path d="M381.519 189.513C385.651 189.513 389 186.164 389 182.032C389 177.901 385.651 174.551 381.519 174.551C377.388 174.551 374.038 177.901 374.038 182.032C374.038 186.164 377.388 189.513 381.519 189.513Z" fill="#444444"/>
<path d="M7.48077 214.449C11.6123 214.449 14.9615 211.099 14.9615 206.968C14.9615 202.836 11.6123 199.487 7.48077 199.487C3.34925 199.487 0 202.836 0 206.968C0 211.099 3.34925 214.449 7.48077 214.449Z" fill="#444444"/>
<path d="M32.4167 239.385C36.5482 239.385 39.8974 236.035 39.8974 231.904C39.8974 227.772 36.5482 224.423 32.4167 224.423C28.2852 224.423 24.9359 227.772 24.9359 231.904C24.9359 236.035 28.2852 239.385 32.4167 239.385Z" fill="#444444"/>
<path d="M57.3526 214.449C61.4841 214.449 64.8333 211.099 64.8333 206.968C64.8333 202.836 61.4841 199.487 57.3526 199.487C53.221 199.487 49.8718 202.836 49.8718 206.968C49.8718 211.099 53.221 214.449 57.3526 214.449Z" fill="#444444"/>
<path d="M82.2885 239.385C86.42 239.385 89.7692 236.035 89.7692 231.904C89.7692 227.772 86.42 224.423 82.2885 224.423C78.1569 224.423 74.8077 227.772 74.8077 231.904C74.8077 236.035 78.1569 239.385 82.2885 239.385Z" fill="#444444"/>
<path d="M107.224 214.449C111.356 214.449 114.705 211.099 114.705 206.968C114.705 202.836 111.356 199.487 107.224 199.487C103.093 199.487 99.7436 202.836 99.7436 206.968C99.7436 211.099 103.093 214.449 107.224 214.449Z" fill="#444444"/>
<path d="M132.16 239.385C136.292 239.385 139.641 236.035 139.641 231.904C139.641 227.772 136.292 224.423 132.16 224.423C128.029 224.423 124.679 227.772 124.679 231.904C124.679 236.035 128.029 239.385 132.16 239.385Z" fill="#444444"/>
<path d="M157.096 214.449C161.228 214.449 164.577 211.099 164.577 206.968C164.577 202.836 161.228 199.487 157.096 199.487C152.965 199.487 149.615 202.836 149.615 206.968C149.615 211.099 152.965 214.449 157.096 214.449Z" fill="#444444"/>
<path d="M182.032 239.385C186.164 239.385 189.513 236.035 189.513 231.904C189.513 227.772 186.164 224.423 182.032 224.423C177.901 224.423 174.551 227.772 174.551 231.904C174.551 236.035 177.901 239.385 182.032 239.385Z" fill="#444444"/>
<path d="M206.968 214.449C211.099 214.449 214.449 211.099 214.449 206.968C214.449 202.836 211.099 199.487 206.968 199.487C202.836 199.487 199.487 202.836 199.487 206.968C199.487 211.099 202.836 214.449 206.968 214.449Z" fill="#444444"/>
<path d="M231.904 239.385C236.035 239.385 239.385 236.035 239.385 231.904C239.385 227.772 236.035 224.423 231.904 224.423C227.772 224.423 224.423 227.772 224.423 231.904C224.423 236.035 227.772 239.385 231.904 239.385Z" fill="#444444"/>
<path d="M256.84 214.449C260.971 214.449 264.321 211.099 264.321 206.968C264.321 202.836 260.971 199.487 256.84 199.487C252.708 199.487 249.359 202.836 249.359 206.968C249.359 211.099 252.708 214.449 256.84 214.449Z" fill="#444444"/>
<path d="M281.776 239.385C285.907 239.385 289.256 236.035 289.256 231.904C289.256 227.772 285.907 224.423 281.776 224.423C277.644 224.423 274.295 227.772 274.295 231.904C274.295 236.035 277.644 239.385 281.776 239.385Z" fill="#444444"/>
<path d="M306.712 214.449C310.843 214.449 314.192 211.099 314.192 206.968C314.192 202.836 310.843 199.487 306.712 199.487C302.58 199.487 299.231 202.836 299.231 206.968C299.231 211.099 302.58 214.449 306.712 214.449Z" fill="#444444"/>
<path d="M331.647 239.385C335.779 239.385 339.128 236.035 339.128 231.904C339.128 227.772 335.779 224.423 331.647 224.423C327.516 224.423 324.167 227.772 324.167 231.904C324.167 236.035 327.516 239.385 331.647 239.385Z" fill="#444444"/>
<path d="M356.583 214.449C360.715 214.449 364.064 211.099 364.064 206.968C364.064 202.836 360.715 199.487 356.583 199.487C352.452 199.487 349.103 202.836 349.103 206.968C349.103 211.099 352.452 214.449 356.583 214.449Z" fill="#444444"/>
<path d="M381.519 239.385C385.651 239.385 389 236.035 389 231.904C389 227.772 385.651 224.423 381.519 224.423C377.388 224.423 374.038 227.772 374.038 231.904C374.038 236.035 377.388 239.385 381.519 239.385Z" fill="#444444"/>
<path d="M7.48077 264.321C11.6123 264.321 14.9615 260.971 14.9615 256.84C14.9615 252.708 11.6123 249.359 7.48077 249.359C3.34925 249.359 0 252.708 0 256.84C0 260.971 3.34925 264.321 7.48077 264.321Z" fill="#444444"/>
<path d="M32.4167 289.256C36.5482 289.256 39.8974 285.907 39.8974 281.776C39.8974 277.644 36.5482 274.295 32.4167 274.295C28.2852 274.295 24.9359 277.644 24.9359 281.776C24.9359 285.907 28.2852 289.256 32.4167 289.256Z" fill="#444444"/>
<path d="M57.3526 264.321C61.4841 264.321 64.8333 260.971 64.8333 256.84C64.8333 252.708 61.4841 249.359 57.3526 249.359C53.221 249.359 49.8718 252.708 49.8718 256.84C49.8718 260.971 53.221 264.321 57.3526 264.321Z" fill="#444444"/>
<path d="M82.2885 289.256C86.42 289.256 89.7692 285.907 89.7692 281.776C89.7692 277.644 86.42 274.295 82.2885 274.295C78.1569 274.295 74.8077 277.644 74.8077 281.776C74.8077 285.907 78.1569 289.256 82.2885 289.256Z" fill="#444444"/>
<path d="M107.224 264.321C111.356 264.321 114.705 260.971 114.705 256.84C114.705 252.708 111.356 249.359 107.224 249.359C103.093 249.359 99.7436 252.708 99.7436 256.84C99.7436 260.971 103.093 264.321 107.224 264.321Z" fill="#444444"/>
<path d="M132.16 289.256C136.292 289.256 139.641 285.907 139.641 281.776C139.641 277.644 136.292 274.295 132.16 274.295C128.029 274.295 124.679 277.644 124.679 281.776C124.679 285.907 128.029 289.256 132.16 289.256Z" fill="#444444"/>
<path d="M157.096 264.321C161.228 264.321 164.577 260.971 164.577 256.84C164.577 252.708 161.228 249.359 157.096 249.359C152.965 249.359 149.615 252.708 149.615 256.84C149.615 260.971 152.965 264.321 157.096 264.321Z" fill="#444444"/>
<path d="M182.032 289.256C186.164 289.256 189.513 285.907 189.513 281.776C189.513 277.644 186.164 274.295 182.032 274.295C177.901 274.295 174.551 277.644 174.551 281.776C174.551 285.907 177.901 289.256 182.032 289.256Z" fill="#444444"/>
<path d="M206.968 264.321C211.099 264.321 214.449 260.971 214.449 256.84C214.449 252.708 211.099 249.359 206.968 249.359C202.836 249.359 199.487 252.708 199.487 256.84C199.487 260.971 202.836 264.321 206.968 264.321Z" fill="#444444"/>
<path d="M231.904 289.256C236.035 289.256 239.385 285.907 239.385 281.776C239.385 277.644 236.035 274.295 231.904 274.295C227.772 274.295 224.423 277.644 224.423 281.776C224.423 285.907 227.772 289.256 231.904 289.256Z" fill="#444444"/>
<path d="M256.84 264.321C260.971 264.321 264.321 260.971 264.321 256.84C264.321 252.708 260.971 249.359 256.84 249.359C252.708 249.359 249.359 252.708 249.359 256.84C249.359 260.971 252.708 264.321 256.84 264.321Z" fill="#444444"/>
<path d="M281.776 289.256C285.907 289.256 289.256 285.907 289.256 281.776C289.256 277.644 285.907 274.295 281.776 274.295C277.644 274.295 274.295 277.644 274.295 281.776C274.295 285.907 277.644 289.256 281.776 289.256Z" fill="#444444"/>
<path d="M306.712 264.321C310.843 264.321 314.192 260.971 314.192 256.84C314.192 252.708 310.843 249.359 306.712 249.359C302.58 249.359 299.231 252.708 299.231 256.84C299.231 260.971 302.58 264.321 306.712 264.321Z" fill="#444444"/>
<path d="M331.647 289.256C335.779 289.256 339.128 285.907 339.128 281.776C339.128 277.644 335.779 274.295 331.647 274.295C327.516 274.295 324.167 277.644 324.167 281.776C324.167 285.907 327.516 289.256 331.647 289.256Z" fill="#444444"/>
<path d="M356.583 264.321C360.715 264.321 364.064 260.971 364.064 256.84C364.064 252.708 360.715 249.359 356.583 249.359C352.452 249.359 349.103 252.708 349.103 256.84C349.103 260.971 352.452 264.321 356.583 264.321Z" fill="#444444"/>
<path d="M381.519 289.256C385.651 289.256 389 285.907 389 281.776C389 277.644 385.651 274.295 381.519 274.295C377.388 274.295 374.038 277.644 374.038 281.776C374.038 285.907 377.388 289.256 381.519 289.256Z" fill="#444444"/>
<path d="M7.48077 314.192C11.6123 314.192 14.9615 310.843 14.9615 306.712C14.9615 302.58 11.6123 299.231 7.48077 299.231C3.34925 299.231 0 302.58 0 306.712C0 310.843 3.34925 314.192 7.48077 314.192Z" fill="#444444"/>
<path d="M32.4167 339.128C36.5482 339.128 39.8974 335.779 39.8974 331.647C39.8974 327.516 36.5482 324.167 32.4167 324.167C28.2852 324.167 24.9359 327.516 24.9359 331.647C24.9359 335.779 28.2852 339.128 32.4167 339.128Z" fill="#444444"/>
<path d="M57.3526 314.192C61.4841 314.192 64.8333 310.843 64.8333 306.712C64.8333 302.58 61.4841 299.231 57.3526 299.231C53.221 299.231 49.8718 302.58 49.8718 306.712C49.8718 310.843 53.221 314.192 57.3526 314.192Z" fill="#444444"/>
<path d="M82.2885 339.128C86.42 339.128 89.7692 335.779 89.7692 331.647C89.7692 327.516 86.42 324.167 82.2885 324.167C78.1569 324.167 74.8077 327.516 74.8077 331.647C74.8077 335.779 78.1569 339.128 82.2885 339.128Z" fill="#444444"/>
<path d="M107.224 314.192C111.356 314.192 114.705 310.843 114.705 306.712C114.705 302.58 111.356 299.231 107.224 299.231C103.093 299.231 99.7436 302.58 99.7436 306.712C99.7436 310.843 103.093 314.192 107.224 314.192Z" fill="#444444"/>
<path d="M132.16 339.128C136.292 339.128 139.641 335.779 139.641 331.647C139.641 327.516 136.292 324.167 132.16 324.167C128.029 324.167 124.679 327.516 124.679 331.647C124.679 335.779 128.029 339.128 132.16 339.128Z" fill="#444444"/>
<path d="M157.096 314.192C161.228 314.192 164.577 310.843 164.577 306.712C164.577 302.58 161.228 299.231 157.096 299.231C152.965 299.231 149.615 302.58 149.615 306.712C149.615 310.843 152.965 314.192 157.096 314.192Z" fill="#444444"/>
<path d="M182.032 339.128C186.164 339.128 189.513 335.779 189.513 331.647C189.513 327.516 186.164 324.167 182.032 324.167C177.901 324.167 174.551 327.516 174.551 331.647C174.551 335.779 177.901 339.128 182.032 339.128Z" fill="#444444"/>
<path d="M206.968 314.192C211.099 314.192 214.449 310.843 214.449 306.712C214.449 302.58 211.099 299.231 206.968 299.231C202.836 299.231 199.487 302.58 199.487 306.712C199.487 310.843 202.836 314.192 206.968 314.192Z" fill="#444444"/>
<path d="M231.904 339.128C236.035 339.128 239.385 335.779 239.385 331.647C239.385 327.516 236.035 324.167 231.904 324.167C227.772 324.167 224.423 327.516 224.423 331.647C224.423 335.779 227.772 339.128 231.904 339.128Z" fill="#444444"/>
<path d="M256.84 314.192C260.971 314.192 264.321 310.843 264.321 306.712C264.321 302.58 260.971 299.231 256.84 299.231C252.708 299.231 249.359 302.58 249.359 306.712C249.359 310.843 252.708 314.192 256.84 314.192Z" fill="#444444"/>
<path d="M281.776 339.128C285.907 339.128 289.256 335.779 289.256 331.647C289.256 327.516 285.907 324.167 281.776 324.167C277.644 324.167 274.295 327.516 274.295 331.647C274.295 335.779 277.644 339.128 281.776 339.128Z" fill="#444444"/>
<path d="M306.712 314.192C310.843 314.192 314.192 310.843 314.192 306.712C314.192 302.58 310.843 299.231 306.712 299.231C302.58 299.231 299.231 302.58 299.231 306.712C299.231 310.843 302.58 314.192 306.712 314.192Z" fill="#444444"/>
<path d="M331.647 339.128C335.779 339.128 339.128 335.779 339.128 331.647C339.128 327.516 335.779 324.167 331.647 324.167C327.516 324.167 324.167 327.516 324.167 331.647C324.167 335.779 327.516 339.128 331.647 339.128Z" fill="#444444"/>
<path d="M356.583 314.192C360.715 314.192 364.064 310.843 364.064 306.712C364.064 302.58 360.715 299.231 356.583 299.231C352.452 299.231 349.103 302.58 349.103 306.712C349.103 310.843 352.452 314.192 356.583 314.192Z" fill="#444444"/>
<path d="M381.519 339.128C385.651 339.128 389 335.779 389 331.647C389 327.516 385.651 324.167 381.519 324.167C377.388 324.167 374.038 327.516 374.038 331.647C374.038 335.779 377.388 339.128 381.519 339.128Z" fill="#444444"/>
<path d="M7.48077 364.064C11.6123 364.064 14.9615 360.715 14.9615 356.583C14.9615 352.452 11.6123 349.103 7.48077 349.103C3.34925 349.103 0 352.452 0 356.583C0 360.715 3.34925 364.064 7.48077 364.064Z" fill="#444444"/>
<path d="M32.4167 389C36.5482 389 39.8974 385.651 39.8974 381.519C39.8974 377.388 36.5482 374.038 32.4167 374.038C28.2852 374.038 24.9359 377.388 24.9359 381.519C24.9359 385.651 28.2852 389 32.4167 389Z" fill="#444444"/>
<path d="M57.3526 364.064C61.4841 364.064 64.8333 360.715 64.8333 356.583C64.8333 352.452 61.4841 349.103 57.3526 349.103C53.221 349.103 49.8718 352.452 49.8718 356.583C49.8718 360.715 53.221 364.064 57.3526 364.064Z" fill="#444444"/>
<path d="M82.2885 389C86.42 389 89.7692 385.651 89.7692 381.519C89.7692 377.388 86.42 374.038 82.2885 374.038C78.1569 374.038 74.8077 377.388 74.8077 381.519C74.8077 385.651 78.1569 389 82.2885 389Z" fill="#444444"/>
<path d="M107.224 364.064C111.356 364.064 114.705 360.715 114.705 356.583C114.705 352.452 111.356 349.103 107.224 349.103C103.093 349.103 99.7436 352.452 99.7436 356.583C99.7436 360.715 103.093 364.064 107.224 364.064Z" fill="#444444"/>
<path d="M132.16 389C136.292 389 139.641 385.651 139.641 381.519C139.641 377.388 136.292 374.038 132.16 374.038C128.029 374.038 124.679 377.388 124.679 381.519C124.679 385.651 128.029 389 132.16 389Z" fill="#444444"/>
<path d="M157.096 364.064C161.228 364.064 164.577 360.715 164.577 356.583C164.577 352.452 161.228 349.103 157.096 349.103C152.965 349.103 149.615 352.452 149.615 356.583C149.615 360.715 152.965 364.064 157.096 364.064Z" fill="#444444"/>
<path d="M182.032 389C186.164 389 189.513 385.651 189.513 381.519C189.513 377.388 186.164 374.038 182.032 374.038C177.901 374.038 174.551 377.388 174.551 381.519C174.551 385.651 177.901 389 182.032 389Z" fill="#444444"/>
<path d="M206.968 364.064C211.099 364.064 214.449 360.715 214.449 356.583C214.449 352.452 211.099 349.103 206.968 349.103C202.836 349.103 199.487 352.452 199.487 356.583C199.487 360.715 202.836 364.064 206.968 364.064Z" fill="#444444"/>
<path d="M231.904 389C236.035 389 239.385 385.651 239.385 381.519C239.385 377.388 236.035 374.038 231.904 374.038C227.772 374.038 224.423 377.388 224.423 381.519C224.423 385.651 227.772 389 231.904 389Z" fill="#444444"/>
<path d="M256.84 364.064C260.971 364.064 264.321 360.715 264.321 356.583C264.321 352.452 260.971 349.103 256.84 349.103C252.708 349.103 249.359 352.452 249.359 356.583C249.359 360.715 252.708 364.064 256.84 364.064Z" fill="#444444"/>
<path d="M281.776 389C285.907 389 289.256 385.651 289.256 381.519C289.256 377.388 285.907 374.038 281.776 374.038C277.644 374.038 274.295 377.388 274.295 381.519C274.295 385.651 277.644 389 281.776 389Z" fill="#444444"/>
<path d="M306.712 364.064C310.843 364.064 314.192 360.715 314.192 356.583C314.192 352.452 310.843 349.103 306.712 349.103C302.58 349.103 299.231 352.452 299.231 356.583C299.231 360.715 302.58 364.064 306.712 364.064Z" fill="#444444"/>
<path d="M331.647 389C335.779 389 339.128 385.651 339.128 381.519C339.128 377.388 335.779 374.038 331.647 374.038C327.516 374.038 324.167 377.388 324.167 381.519C324.167 385.651 327.516 389 331.647 389Z" fill="#444444"/>
<path d="M356.583 364.064C360.715 364.064 364.064 360.715 364.064 356.583C364.064 352.452 360.715 349.103 356.583 349.103C352.452 349.103 349.103 352.452 349.103 356.583C349.103 360.715 352.452 364.064 356.583 364.064Z" fill="#444444"/>
<path d="M381.519 389C385.651 389 389 385.651 389 381.519C389 377.388 385.651 374.038 381.519 374.038C377.388 374.038 374.038 377.388 374.038 381.519C374.038 385.651 377.388 389 381.519 389Z" fill="#444444"/>
</svg>
