<?xml version="1.0" encoding="UTF-8"?>
<svg xmlns="http://www.w3.org/2000/svg" xmlns:xlink="http://www.w3.org/1999/xlink" viewBox="0 0 48 48" width="48px" height="48px">
<g id="surface34017527">
<path style="fill-rule:nonzero;fill:rgb(36.470589%,25.098041%,21.568628%);fill-opacity:1;stroke-width:2;stroke-linecap:butt;stroke-linejoin:round;stroke:rgb(0%,0%,0%);stroke-opacity:1;stroke-miterlimit:10;" d="M 150.495581 61.996375 C 150.495581 135.450857 85.999998 157.671192 85.999998 157.671192 C 85.999998 157.671192 21.504415 135.450857 21.504415 61.996375 C 21.504415 53.037476 22.212069 45.508038 22.933876 39.422214 C 24.00951 30.463315 30.095334 23.287703 38.700407 21.136435 C 49.810574 17.923686 67.360393 14.328804 85.999998 14.328804 C 104.639604 14.328804 122.189422 17.923686 133.653416 21.136435 C 142.258489 23.287703 148.344313 30.817142 149.419947 39.422214 C 149.787927 45.508038 150.495581 53.391303 150.495581 61.996375 Z M 150.495581 61.996375 " transform="matrix(0.276,0,0,0.276,0.264,0.264)"/>
<path style="fill-rule:nonzero;fill:rgb(29.803923%,68.627453%,31.37255%);fill-opacity:1;stroke-width:2;stroke-linecap:butt;stroke-linejoin:round;stroke:rgb(0%,0%,0%);stroke-opacity:1;stroke-miterlimit:10;" d="M 85.999998 25.085144 C 68.436027 25.085144 51.961842 28.665873 41.205502 31.538949 C 36.902966 32.614583 33.690217 36.195312 33.322237 40.851675 C 32.614583 47.659306 32.246603 54.820764 32.246603 61.996375 C 32.246603 117.533059 73.46037 140.107221 85.999998 145.839218 C 98.539626 140.461048 139.753394 117.886886 139.753394 61.996375 C 139.753394 54.820764 139.385414 47.659306 138.67776 40.851675 C 137.955953 36.195312 135.09703 32.614583 130.794494 31.538949 C 120.038154 28.665873 103.56397 25.085144 85.999998 25.085144 M 85.999998 14.328804 C 104.639604 14.328804 122.189422 17.923686 133.299589 21.136435 C 141.904662 23.287703 147.990486 30.463315 149.06612 39.422214 C 149.787927 45.508038 150.495581 53.037476 150.495581 61.996375 C 150.495581 135.450857 85.999998 157.671192 85.999998 157.671192 C 85.999998 157.671192 21.504415 135.450857 21.504415 61.996375 C 21.504415 53.391303 22.212069 45.508038 22.933876 39.422214 C 23.655683 30.817142 30.095334 23.287703 38.34658 21.136435 C 49.810574 17.923686 67.360393 14.328804 85.999998 14.328804 Z M 85.999998 14.328804 " transform="matrix(0.276,0,0,0.276,0.264,0.264)"/>
<path style="fill-rule:nonzero;fill:rgb(86.274511%,92.941177%,78.431374%);fill-opacity:1;stroke-width:2;stroke-linecap:butt;stroke-linejoin:round;stroke:rgb(0%,0%,0%);stroke-opacity:1;stroke-miterlimit:10;" d="M 82.419269 100.337067 L 89.580727 100.337067 L 89.580727 128.997053 L 82.419269 128.997053 Z M 82.419269 100.337067 " transform="matrix(0.276,0,0,0.276,0.264,0.264)"/>
<path style="fill-rule:nonzero;fill:rgb(29.803923%,68.627453%,31.37255%);fill-opacity:1;stroke-width:2;stroke-linecap:butt;stroke-linejoin:round;stroke:rgb(0%,0%,0%);stroke-opacity:1;stroke-miterlimit:10;" d="M 107.498526 82.419269 C 107.498526 101.044721 95.680704 112.876696 89.580727 118.254866 L 85.999998 107.498526 L 82.419269 118.254866 C 76.319292 112.876696 64.50147 101.044721 64.50147 82.419269 C 64.50147 53.74513 85.999998 35.827332 85.999998 35.827332 C 85.999998 35.827332 107.498526 53.74513 107.498526 82.419269 Z M 107.498526 82.419269 " transform="matrix(0.276,0,0,0.276,0.264,0.264)"/>
<path style="fill-rule:nonzero;fill:rgb(50.588238%,78.039217%,51.764709%);fill-opacity:1;stroke-width:2;stroke-linecap:butt;stroke-linejoin:round;stroke:rgb(0%,0%,0%);stroke-opacity:1;stroke-miterlimit:10;" d="M 85.999998 107.498526 L 82.419269 118.254866 C 76.319292 112.876696 64.50147 101.044721 64.50147 82.419269 C 64.50147 53.74513 85.999998 35.827332 85.999998 35.827332 Z M 85.999998 107.498526 " transform="matrix(0.276,0,0,0.276,0.264,0.264)"/>
<path style=" stroke:none;fill-rule:nonzero;fill:rgb(36.470589%,25.098041%,21.568628%);fill-opacity:1;" d="M 41.800781 17.375 C 41.800781 37.648438 24 43.78125 24 43.78125 C 24 43.78125 6.199219 37.648438 6.199219 17.375 C 6.199219 14.902344 6.394531 12.824219 6.59375 11.144531 C 6.890625 8.671875 8.570312 6.691406 10.945312 6.097656 C 14.011719 5.210938 18.855469 4.21875 24 4.21875 C 29.144531 4.21875 33.988281 5.210938 37.152344 6.097656 C 39.527344 6.691406 41.207031 8.769531 41.503906 11.144531 C 41.605469 12.824219 41.800781 15 41.800781 17.375 Z M 41.800781 17.375 "/>
<path style=" stroke:none;fill-rule:nonzero;fill:rgb(29.803923%,68.627453%,31.37255%);fill-opacity:1;" d="M 24 7.1875 C 28.847656 7.1875 33.394531 8.175781 36.363281 8.96875 C 37.550781 9.265625 38.339844 10.253906 38.539062 11.539062 C 38.734375 13.417969 38.835938 15.394531 38.835938 17.375 C 38.835938 32.800781 27.460938 39.03125 24 40.515625 C 20.539062 38.933594 9.164062 32.703125 9.164062 17.375 C 9.164062 15.394531 9.265625 13.417969 9.460938 11.539062 C 9.5625 10.253906 10.449219 9.265625 11.636719 8.96875 C 14.605469 8.175781 19.152344 7.1875 24 7.1875 M 24 4.21875 C 18.855469 4.21875 14.011719 5.210938 10.847656 6.097656 C 8.570312 6.691406 6.792969 8.769531 6.59375 11.144531 C 6.394531 12.824219 6.199219 15 6.199219 17.375 C 6.199219 37.648438 24 43.78125 24 43.78125 C 24 43.78125 41.800781 37.648438 41.800781 17.375 C 41.800781 14.902344 41.605469 12.824219 41.40625 11.144531 C 41.109375 8.671875 39.429688 6.691406 37.054688 6.097656 C 33.988281 5.210938 29.144531 4.21875 24 4.21875 Z M 24 4.21875 "/>
<path style=" stroke:none;fill-rule:nonzero;fill:rgb(86.274511%,92.941177%,78.431374%);fill-opacity:1;" d="M 23.011719 27.957031 L 24.988281 27.957031 L 24.988281 35.867188 L 23.011719 35.867188 Z M 23.011719 27.957031 "/>
<path style=" stroke:none;fill-rule:nonzero;fill:rgb(29.803923%,68.627453%,31.37255%);fill-opacity:1;" d="M 24 10.152344 C 24 10.152344 18.066406 15.097656 18.066406 23.011719 C 18.066406 28.152344 21.328125 31.417969 23.011719 32.902344 L 24 29.933594 L 24.988281 32.902344 C 26.671875 31.417969 29.933594 28.152344 29.933594 23.011719 C 29.933594 15.097656 24 10.152344 24 10.152344 Z M 24 10.152344 "/>
<path style=" stroke:none;fill-rule:nonzero;fill:rgb(50.588238%,78.039217%,51.764709%);fill-opacity:1;" d="M 24 10.152344 C 24 10.152344 18.066406 15.097656 18.066406 23.011719 C 18.066406 28.152344 21.328125 31.417969 23.011719 32.902344 L 24 29.933594 Z M 24 10.152344 "/>
</g>
</svg>
