<?xml version="1.0" encoding="UTF-8"?>
<svg xmlns="http://www.w3.org/2000/svg" xmlns:xlink="http://www.w3.org/1999/xlink" viewBox="0 0 96 96" width="96px" height="96px">
<g id="surface5100832">
<path style="fill-rule:nonzero;fill:rgb(1.176471%,66.274512%,95.686275%);fill-opacity:1;stroke-width:4;stroke-linecap:butt;stroke-linejoin:round;stroke:rgb(0%,0%,0%);stroke-opacity:1;stroke-miterlimit:10;" d="M 21.500229 35.834308 C 21.500229 27.918687 27.918687 21.500229 35.834308 21.500229 L 136.165693 21.500229 C 144.081313 21.500229 150.499771 27.918687 150.499771 35.834308 L 150.499771 136.165693 C 150.499771 144.081313 144.081313 150.499771 136.165693 150.499771 L 35.834308 150.499771 C 27.918687 150.499771 21.500229 144.081313 21.500229 136.165693 Z M 21.500229 35.834308 " transform="matrix(0.545302,0,0,0.545302,1.104,1.104)"/>
<path style="fill-rule:nonzero;fill:rgb(0.784314%,5.882353%,8.627451%);fill-opacity:1;stroke-width:4;stroke-linecap:butt;stroke-linejoin:round;stroke:rgb(0%,0%,0%);stroke-opacity:1;stroke-miterlimit:10;" d="M 76.135919 70.99972 C 77.231928 72.504046 77.776351 74.524141 77.776351 77.067169 C 77.776351 79.524235 77.246255 81.386734 76.171736 82.668992 C 75.097218 83.951251 73.578565 84.595962 71.622941 84.595962 L 64.552609 84.595962 L 64.552609 68.707414 L 71.723229 68.707414 C 73.564238 68.728904 75.03991 69.495394 76.135919 70.99972 Z M 76.135919 70.99972 " transform="matrix(0.545302,0,0,0.545302,1.104,1.104)"/>
<path style="fill-rule:nonzero;fill:rgb(0.784314%,5.882353%,8.627451%);fill-opacity:1;stroke-width:4;stroke-linecap:butt;stroke-linejoin:round;stroke:rgb(0%,0%,0%);stroke-opacity:1;stroke-miterlimit:10;" d="M 139.747421 32.252579 L 139.747421 139.747421 L 32.252579 139.747421 L 32.252579 32.252579 Z M 88.170528 76.995534 C 88.170528 72.009768 86.673365 67.948087 83.671876 64.82482 C 80.677551 61.694389 76.658852 60.132755 71.622941 60.132755 L 54.265884 60.132755 L 54.265884 111.086428 L 64.552609 111.086428 L 64.552609 93.163458 L 71.408037 93.163458 C 76.658852 93.163458 80.763513 91.723603 83.722021 88.829566 C 86.687692 85.928366 88.170528 81.988464 88.170528 76.995534 Z M 120.921855 100.548982 C 120.921855 97.633455 120.090894 95.262351 118.421809 93.428505 C 116.752723 91.59466 113.901667 89.932738 109.861477 88.442739 C 107.082055 87.253605 105.327008 86.336683 104.582009 85.691971 C 103.829846 85.04726 103.457346 84.309424 103.457346 83.4713 C 103.457346 82.303656 103.794028 81.393897 104.474557 80.742022 C 105.155085 80.090148 106.0147 79.760629 107.060565 79.760629 C 109.632246 79.760629 110.914505 81.300772 110.914505 84.381059 L 120.814403 84.381059 C 120.814403 80.763513 119.567962 77.876639 117.067915 75.734766 C 114.575032 73.592892 111.251188 72.518373 107.096382 72.518373 C 103.163644 72.518373 99.990233 73.600055 97.597638 75.756256 C 95.212206 77.912457 94.008746 80.648897 94.008746 83.958415 C 94.008746 86.601731 94.775236 88.800912 96.308215 90.577449 C 97.834032 92.353987 100.642107 94.066053 104.725278 95.720812 C 107.497536 96.9386 109.281237 97.898503 110.090708 98.607685 C 110.900178 99.316868 111.301332 100.090521 111.301332 100.928645 C 111.301332 103.335567 109.968929 104.539028 107.311286 104.539028 C 105.584893 104.539028 104.345615 104.109221 103.586288 103.242442 C 102.826962 102.382827 102.425808 101.079078 102.375664 99.359848 L 92.962881 99.359848 C 92.962881 101.594847 93.564611 103.686577 94.768072 105.62071 C 95.964369 107.554844 97.633455 109.066333 99.753838 110.155179 C 101.874222 111.244024 104.324124 111.781283 107.103546 111.781283 C 111.229697 111.781283 114.567868 110.756909 117.110896 108.700997 C 119.653923 106.652248 120.921855 103.937298 120.921855 100.548982 Z M 120.921855 100.548982 " transform="matrix(0.545302,0,0,0.545302,1.104,1.104)"/>
<path style=" stroke:none;fill-rule:nonzero;fill:rgb(1.176471%,66.274512%,95.686275%);fill-opacity:1;" d="M 12.828125 20.644531 C 12.828125 16.328125 16.328125 12.828125 20.644531 12.828125 L 75.355469 12.828125 C 79.671875 12.828125 83.171875 16.328125 83.171875 20.644531 L 83.171875 75.355469 C 83.171875 79.671875 79.671875 83.171875 75.355469 83.171875 L 20.644531 83.171875 C 16.328125 83.171875 12.828125 79.671875 12.828125 75.355469 Z M 12.828125 20.644531 "/>
<path style=" stroke:none;fill-rule:nonzero;fill:rgb(0.784314%,5.882353%,8.627451%);fill-opacity:1;" d="M 40.214844 38.570312 L 36.304688 38.570312 L 36.304688 47.234375 L 40.160156 47.234375 C 41.226562 47.234375 42.054688 46.882812 42.640625 46.183594 C 43.226562 45.484375 43.515625 44.46875 43.515625 43.128906 C 43.515625 41.742188 43.21875 40.640625 42.621094 39.820312 C 42.023438 39 41.21875 38.582031 40.214844 38.570312 Z M 40.214844 38.570312 "/>
<path style=" stroke:none;fill-rule:nonzero;fill:rgb(0.784314%,5.882353%,8.627451%);fill-opacity:1;" d="M 18.691406 18.691406 L 18.691406 77.308594 L 77.308594 77.308594 L 77.308594 18.691406 Z M 46.757812 49.542969 C 45.144531 51.121094 42.90625 51.90625 40.042969 51.90625 L 36.304688 51.90625 L 36.304688 61.679688 L 30.695312 61.679688 L 30.695312 33.894531 L 40.160156 33.894531 C 42.90625 33.894531 45.097656 34.746094 46.730469 36.453125 C 48.367188 38.15625 49.183594 40.371094 49.183594 43.089844 C 49.183594 45.8125 48.375 47.960938 46.757812 49.542969 Z M 64.964844 60.378906 C 63.578125 61.5 61.757812 62.058594 59.507812 62.058594 C 57.992188 62.058594 56.65625 61.765625 55.5 61.171875 C 54.34375 60.578125 53.433594 59.753906 52.78125 58.699219 C 52.125 57.644531 51.796875 56.503906 51.796875 55.285156 L 56.929688 55.285156 C 56.957031 56.222656 57.175781 56.933594 57.589844 57.402344 C 58.003906 57.875 58.679688 58.109375 59.621094 58.109375 C 61.070312 58.109375 61.796875 57.453125 61.796875 56.140625 C 61.796875 55.683594 61.578125 55.261719 61.136719 54.875 C 60.695312 54.488281 59.722656 53.964844 58.210938 53.300781 C 55.984375 52.398438 54.453125 51.464844 53.621094 50.496094 C 52.785156 49.527344 52.371094 48.328125 52.371094 46.886719 C 52.371094 45.082031 53.023438 43.589844 54.324219 42.414062 C 55.628906 41.238281 57.359375 40.648438 59.503906 40.648438 C 61.769531 40.648438 63.582031 41.234375 64.941406 42.402344 C 66.304688 43.570312 66.984375 45.144531 66.984375 47.117188 L 61.585938 47.117188 C 61.585938 45.4375 60.886719 44.597656 59.484375 44.597656 C 58.914062 44.597656 58.445312 44.777344 58.074219 45.132812 C 57.703125 45.488281 57.519531 45.984375 57.519531 46.621094 C 57.519531 47.078125 57.722656 47.480469 58.132812 47.832031 C 58.539062 48.183594 59.496094 48.683594 61.011719 49.332031 C 63.214844 50.144531 64.769531 51.050781 65.679688 52.050781 C 66.589844 53.050781 67.042969 54.34375 67.042969 55.933594 C 67.042969 57.78125 66.351562 59.261719 64.964844 60.378906 Z M 64.964844 60.378906 "/>
</g>
</svg>
