<?xml version="1.0" encoding="UTF-8"?>
<svg xmlns="http://www.w3.org/2000/svg" xmlns:xlink="http://www.w3.org/1999/xlink" viewBox="0 0 96 96" width="96px" height="96px">
<defs>
<linearGradient id="linear0" gradientUnits="userSpaceOnUse" x1="135.449997" y1="155.409164" x2="135.449997" y2="26.588329" gradientTransform="matrix(1,0,0,1,0,0)">
<stop offset="0" style="stop-color:rgb(16.078432%,71.372551%,96.470588%);stop-opacity:1;"/>
<stop offset="1" style="stop-color:rgb(7.450981%,69.803923%,96.470588%);stop-opacity:1;"/>
</linearGradient>
<linearGradient id="linear1" gradientUnits="userSpaceOnUse" x1="21.804581" y1="124.703583" x2="124.674919" y2="25.703251" gradientTransform="matrix(1,0,0,1,0,0)">
<stop offset="0.115" style="stop-color:rgb(0%,46.27451%,73.333335%);stop-opacity:1;"/>
<stop offset="0.257" style="stop-color:rgb(0%,41.176471%,69.01961%);stop-opacity:1;"/>
<stop offset="0.28" style="stop-color:rgb(0%,41.176471%,69.01961%);stop-opacity:1;"/>
<stop offset="0.424" style="stop-color:rgb(0%,41.176471%,69.01961%);stop-opacity:1;"/>
<stop offset="0.491" style="stop-color:rgb(0%,44.705883%,71.764708%);stop-opacity:1;"/>
<stop offset="0.577" style="stop-color:rgb(0%,46.27451%,73.333335%);stop-opacity:1;"/>
<stop offset="0.795" style="stop-color:rgb(0%,46.27451%,73.333335%);stop-opacity:1;"/>
<stop offset="1" style="stop-color:rgb(0%,43.137255%,72.549021%);stop-opacity:1;"/>
</linearGradient>
<linearGradient id="linear2" gradientUnits="userSpaceOnUse" x1="135.449997" y1="155.409164" x2="135.449997" y2="26.588329" gradientTransform="matrix(0.548651,0,0,0.548651,0.816,0.816)">
<stop offset="0" style="stop-color:rgb(16.078432%,71.372551%,96.470588%);stop-opacity:1;"/>
<stop offset="1" style="stop-color:rgb(7.450981%,69.803923%,96.470588%);stop-opacity:1;"/>
</linearGradient>
<linearGradient id="linear3" gradientUnits="userSpaceOnUse" x1="21.804581" y1="124.703583" x2="124.674919" y2="25.703251" gradientTransform="matrix(0.548651,0,0,0.548651,0.816,0.816)">
<stop offset="0.115" style="stop-color:rgb(0%,46.27451%,73.333335%);stop-opacity:1;"/>
<stop offset="0.257" style="stop-color:rgb(0%,41.176471%,69.01961%);stop-opacity:1;"/>
<stop offset="0.28" style="stop-color:rgb(0%,41.176471%,69.01961%);stop-opacity:1;"/>
<stop offset="0.424" style="stop-color:rgb(0%,41.176471%,69.01961%);stop-opacity:1;"/>
<stop offset="0.491" style="stop-color:rgb(0%,44.705883%,71.764708%);stop-opacity:1;"/>
<stop offset="0.577" style="stop-color:rgb(0%,46.27451%,73.333335%);stop-opacity:1;"/>
<stop offset="0.795" style="stop-color:rgb(0%,46.27451%,73.333335%);stop-opacity:1;"/>
<stop offset="1" style="stop-color:rgb(0%,43.137255%,72.549021%);stop-opacity:1;"/>
</linearGradient>
</defs>
<g id="surface260788242">
<path style="fill-rule:nonzero;fill:url(#linear0);stroke-width:3;stroke-linecap:butt;stroke-linejoin:round;stroke:rgb(0%,0%,0%);stroke-opacity:1;stroke-miterlimit:10;" d="M 122.467277 15.222731 C 123.136532 15.557358 142.843954 24.955406 152.469834 29.554754 C 155.652355 31.064138 157.667239 34.268018 157.667239 37.792286 L 157.667239 134.036844 C 157.667239 137.553992 155.666594 140.750753 152.498313 142.274375 C 143.363695 146.674371 125.222614 155.410284 124.012259 155.986982 C 123.129412 156.407047 120.794139 157.667239 118.90029 157.667239 C 116.472461 157.667239 114.842042 156.535202 113.240102 155.054297 L 121.833621 127.963711 L 121.833621 20.477094 L 113.759843 16.411726 C 115.482818 14.724349 117.875049 14.332764 119.291876 14.332764 C 120.587667 14.332764 121.648507 14.831145 122.467277 15.222731 Z M 122.467277 15.222731 " transform="matrix(0.548651,0,0,0.548651,0.816,0.816)"/>
<path style="fill-rule:nonzero;fill:url(#linear1);stroke-width:3;stroke-linecap:butt;stroke-linejoin:round;stroke:rgb(0%,0%,0%);stroke-opacity:1;stroke-miterlimit:10;" d="M 23.538579 121.278281 C 21.815604 120.053687 17.073861 115.639452 17.073861 115.639452 C 13.64927 112.898355 13.464157 107.750788 16.689396 104.774739 C 16.689396 104.774739 111.111302 18.811076 113.460814 16.646677 C 115.874404 14.411081 121.833621 16.233733 121.833621 20.890039 L 121.833621 53.291946 L 32.253133 121.463394 C 29.640191 123.371483 26.172881 123.157891 23.538579 121.278281 Z M 23.538579 121.278281 " transform="matrix(0.548651,0,0,0.548651,0.816,0.816)"/>
<path style="fill-rule:nonzero;fill:rgb(0.784314%,53.333336%,81.960785%);fill-opacity:1;stroke-width:3;stroke-linecap:butt;stroke-linejoin:round;stroke:rgb(0%,0%,0%);stroke-opacity:1;stroke-miterlimit:10;" d="M 32.253133 50.536609 L 121.833621 118.814854 L 121.833621 150.248477 C 121.833621 154.541676 116.743011 158.101543 113.240102 155.054297 L 16.689396 67.225264 C 13.464157 64.249216 13.64927 59.101648 17.073861 56.360551 C 17.073861 56.360551 21.815604 51.946316 23.538579 50.721722 C 26.172881 48.842112 29.640191 48.62852 32.253133 50.536609 Z M 32.253133 50.536609 " transform="matrix(0.548651,0,0,0.548651,0.816,0.816)"/>
<path style=" stroke:none;fill-rule:nonzero;fill:url(#linear2);" d="M 68.007812 9.167969 C 68.375 9.351562 79.1875 14.507812 84.46875 17.03125 C 86.214844 17.859375 87.320312 19.617188 87.320312 21.550781 L 87.320312 74.355469 C 87.320312 76.285156 86.222656 78.039062 84.484375 78.875 C 79.472656 81.289062 69.519531 86.082031 68.855469 86.398438 C 68.371094 86.628906 67.089844 87.320312 66.050781 87.320312 C 64.71875 87.320312 63.824219 86.699219 62.945312 85.886719 L 67.660156 71.023438 L 67.660156 12.050781 L 63.230469 9.820312 C 64.175781 8.894531 65.488281 8.679688 66.265625 8.679688 C 66.976562 8.679688 67.558594 8.953125 68.007812 9.167969 Z M 68.007812 9.167969 "/>
<path style=" stroke:none;fill-rule:nonzero;fill:url(#linear3);" d="M 18.511719 67.457031 L 67.660156 30.054688 L 67.660156 12.277344 C 67.660156 9.722656 64.390625 8.722656 63.066406 9.949219 C 61.777344 11.136719 9.972656 58.300781 9.972656 58.300781 C 8.203125 59.933594 8.304688 62.757812 10.183594 64.261719 C 10.183594 64.261719 12.785156 66.683594 13.730469 67.355469 C 15.175781 68.386719 17.078125 68.503906 18.511719 67.457031 Z M 18.511719 67.457031 "/>
<path style=" stroke:none;fill-rule:nonzero;fill:rgb(0.784314%,53.333336%,81.960785%);fill-opacity:1;" d="M 18.511719 28.542969 L 67.660156 66.003906 L 67.660156 83.25 C 67.660156 85.605469 64.867188 87.558594 62.945312 85.886719 L 9.972656 37.699219 C 8.203125 36.066406 8.304688 33.242188 10.183594 31.738281 C 10.183594 31.738281 12.785156 29.316406 13.730469 28.644531 C 15.175781 27.613281 17.078125 27.496094 18.511719 28.542969 Z M 18.511719 28.542969 "/>
</g>
</svg>
