<?xml version="1.0" encoding="UTF-8"?>
<svg xmlns="http://www.w3.org/2000/svg" xmlns:xlink="http://www.w3.org/1999/xlink" viewBox="0 0 48 48" width="48px" height="48px">
<g id="surface23865500">
<path style="fill-rule:nonzero;fill:rgb(90.196079%,29.019609%,9.803922%);fill-opacity:1;stroke-width:4;stroke-linecap:butt;stroke-linejoin:round;stroke:rgb(0%,0%,0%);stroke-opacity:1;stroke-miterlimit:10;" d="M 93.163458 60.913572 L 64.495301 60.913572 C 50.641174 60.913572 39.4232 49.681271 39.4232 35.827144 C 39.4232 21.973017 50.641174 10.755043 64.495301 10.755043 L 93.163458 10.755043 Z M 93.163458 60.913572 " transform="matrix(0.272651,0,0,0.272651,0.552,0.552)"/>
<path style="fill-rule:nonzero;fill:rgb(48.627451%,30.19608%,100%);fill-opacity:1;stroke-width:4;stroke-linecap:butt;stroke-linejoin:round;stroke:rgb(0%,0%,0%);stroke-opacity:1;stroke-miterlimit:10;" d="M 89.581729 111.086428 L 64.495301 111.086428 C 50.641174 111.086428 39.4232 99.854127 39.4232 86 C 39.4232 72.145873 50.641174 60.913572 64.495301 60.913572 L 89.581729 60.913572 Z M 89.581729 111.086428 " transform="matrix(0.272651,0,0,0.272651,0.552,0.552)"/>
<path style="fill-rule:nonzero;fill:rgb(40.000001%,73.333335%,41.568628%);fill-opacity:1;stroke-width:4;stroke-linecap:butt;stroke-linejoin:round;stroke:rgb(0%,0%,0%);stroke-opacity:1;stroke-miterlimit:10;" d="M 64.495301 161.244957 C 50.641174 161.244957 39.4232 150.026983 39.4232 136.172856 C 39.4232 122.318729 50.641174 111.086428 64.495301 111.086428 L 89.581729 111.086428 L 89.581729 136.172856 C 89.581729 150.026983 78.349428 161.244957 64.495301 161.244957 Z M 64.495301 161.244957 " transform="matrix(0.272651,0,0,0.272651,0.552,0.552)"/>
<path style="fill-rule:nonzero;fill:rgb(100%,43.921569%,26.274511%);fill-opacity:1;stroke-width:4;stroke-linecap:butt;stroke-linejoin:round;stroke:rgb(0%,0%,0%);stroke-opacity:1;stroke-miterlimit:10;" d="M 114.668157 60.913572 L 89.581729 60.913572 L 89.581729 10.755043 L 114.668157 10.755043 C 128.522284 10.755043 139.754585 21.973017 139.754585 35.827144 C 139.754585 49.681271 128.522284 60.913572 114.668157 60.913572 Z M 114.668157 60.913572 " transform="matrix(0.272651,0,0,0.272651,0.552,0.552)"/>
<path style="fill-rule:nonzero;fill:rgb(16.078432%,71.372551%,96.470588%);fill-opacity:1;stroke-width:4;stroke-linecap:butt;stroke-linejoin:round;stroke:rgb(0%,0%,0%);stroke-opacity:1;stroke-miterlimit:10;" d="M 89.581729 86 C 89.581729 72.145873 100.81403 60.913572 114.668157 60.913572 C 128.522284 60.913572 139.754585 72.145873 139.754585 86 C 139.754585 99.854127 128.522284 111.086428 114.668157 111.086428 C 100.81403 111.086428 89.581729 99.854127 89.581729 86 Z M 89.581729 86 " transform="matrix(0.272651,0,0,0.272651,0.552,0.552)"/>
<path style=" stroke:none;fill-rule:nonzero;fill:rgb(90.196079%,29.019609%,9.803922%);fill-opacity:1;" d="M 25.953125 17.160156 L 18.136719 17.160156 C 14.359375 17.160156 11.300781 14.097656 11.300781 10.320312 C 11.300781 6.542969 14.359375 3.484375 18.136719 3.484375 L 25.953125 3.484375 Z M 25.953125 17.160156 "/>
<path style=" stroke:none;fill-rule:nonzero;fill:rgb(48.627451%,30.19608%,100%);fill-opacity:1;" d="M 24.976562 30.839844 L 18.136719 30.839844 C 14.359375 30.839844 11.300781 27.777344 11.300781 24 C 11.300781 20.222656 14.359375 17.160156 18.136719 17.160156 L 24.976562 17.160156 Z M 24.976562 30.839844 "/>
<path style=" stroke:none;fill-rule:nonzero;fill:rgb(40.000001%,73.333335%,41.568628%);fill-opacity:1;" d="M 18.136719 44.515625 C 14.359375 44.515625 11.300781 41.457031 11.300781 37.679688 C 11.300781 33.902344 14.359375 30.839844 18.136719 30.839844 L 24.976562 30.839844 L 24.976562 37.679688 C 24.976562 41.457031 21.914062 44.515625 18.136719 44.515625 Z M 18.136719 44.515625 "/>
<path style=" stroke:none;fill-rule:nonzero;fill:rgb(100%,43.921569%,26.274511%);fill-opacity:1;" d="M 31.816406 17.160156 L 24.976562 17.160156 L 24.976562 3.484375 L 31.816406 3.484375 C 35.59375 3.484375 38.65625 6.542969 38.65625 10.320312 C 38.65625 14.097656 35.59375 17.160156 31.816406 17.160156 Z M 31.816406 17.160156 "/>
<path style=" stroke:none;fill-rule:nonzero;fill:rgb(16.078432%,71.372551%,96.470588%);fill-opacity:1;" d="M 38.65625 24 C 38.65625 27.777344 35.59375 30.839844 31.816406 30.839844 C 28.039062 30.839844 24.976562 27.777344 24.976562 24 C 24.976562 20.222656 28.039062 17.160156 31.816406 17.160156 C 35.59375 17.160156 38.65625 20.222656 38.65625 24 Z M 38.65625 24 "/>
</g>
</svg>
