<svg xmlns="http://www.w3.org/2000/svg" width="720" height="480" viewBox="0 0 720 480"><g transform="translate(30303.762 -11573.611)"><path d="m -30303.762,11573.612 0,151.998 0,16 0,144 0,16 0,152 712,0 8,0 0,-312 0,-16 0,-151.998 -720,0 z" style="line-height:normal;text-indent:0;text-align:start;text-decoration-line:none;text-decoration-style:solid;text-decoration-color:#000;text-transform:none;block-progression:tb;white-space:normal;isolation:auto;mix-blend-mode:normal;solid-color:#000;solid-opacity:1" fill="#3b3c3d" color="#000" enable-background="accumulate" font-family="sans-serif" font-weight="400" overflow="visible"/><path d="m -30287.762,11741.61 688,0 0,144 -688,0 0,-144 z" style="line-height:normal;text-indent:0;text-align:start;text-decoration-line:none;text-decoration-style:solid;text-decoration-color:#000;text-transform:none;block-progression:tb;white-space:normal;isolation:auto;mix-blend-mode:normal;solid-color:#000;solid-opacity:1" fill="#fff" color="#000" enable-background="accumulate" font-family="sans-serif" font-weight="400" overflow="visible"/><path style="line-height:normal;text-indent:0;text-align:start;text-decoration-line:none;text-decoration-style:solid;text-decoration-color:#000;text-transform:none;block-progression:tb;white-space:normal;isolation:auto;mix-blend-mode:normal;solid-color:#000;solid-opacity:1" fill="#3d6591" d="m -29943.762,11750.861 c -34.662,0 -62.751,28.089 -62.751,62.751 0,34.662 28.089,62.751 62.751,62.751 34.662,0 62.751,-28.089 62.751,-62.751 0,-34.662 -28.089,-62.751 -62.751,-62.751 z m 0,6.997 c 1.381,0 2.746,0.07 4.102,0.166 -0.03,0.112 -0.06,0.222 -0.07,0.339 -0.231,1.756 1.014,3.378 2.77,3.609 1.756,0.232 3.377,-1.014 3.608,-2.77 0.02,-0.121 0,-0.239 0.01,-0.358 2.721,0.515 5.371,1.228 7.937,2.123 -0.06,0.105 -0.115,0.21 -0.162,0.323 -0.678,1.636 0.104,3.525 1.741,4.202 1.636,0.678 3.524,-0.104 4.202,-1.74 0.05,-0.118 0.07,-0.238 0.107,-0.358 2.479,1.199 4.852,2.577 7.109,4.116 -0.08,0.08 -0.163,0.174 -0.236,0.27 -1.078,1.405 -0.811,3.431 0.594,4.509 1.405,1.078 3.431,0.812 4.509,-0.593 0.07,-0.09 0.122,-0.195 0.182,-0.292 2.074,1.79 4.014,3.729 5.805,5.803 -0.1,0.06 -0.196,0.118 -0.289,0.189 -1.405,1.078 -1.673,3.104 -0.594,4.509 1.078,1.405 3.105,1.672 4.511,0.594 0.1,-0.07 0.176,-0.163 0.262,-0.247 1.541,2.261 2.923,4.636 4.123,7.118 -0.119,0.03 -0.239,0.06 -0.356,0.107 -1.636,0.678 -2.418,2.566 -1.74,4.203 0.677,1.636 2.566,2.418 4.202,1.74 0.113,-0.05 0.212,-0.113 0.317,-0.171 0.897,2.569 1.612,5.221 2.127,7.945 -0.119,0 -0.237,0 -0.358,0.01 -1.756,0.231 -3.001,1.854 -2.77,3.61 0.231,1.756 1.854,3 3.61,2.769 0.117,-0.02 0.226,-0.05 0.338,-0.08 0.1,1.358 0.166,2.726 0.166,4.109 0,1.384 -0.07,2.752 -0.166,4.111 -0.113,-0.03 -0.222,-0.07 -0.34,-0.08 -0.22,-0.03 -0.436,-0.03 -0.649,-0.02 -1.49,0.108 -2.757,1.252 -2.959,2.788 -0.231,1.756 1.012,3.379 2.768,3.61 0.122,0.02 0.24,0 0.36,0.01 -0.515,2.723 -1.229,5.375 -2.125,7.942 -0.105,-0.06 -0.205,-0.124 -0.319,-0.171 -0.409,-0.169 -0.833,-0.247 -1.25,-0.243 -1.254,0.01 -2.444,0.758 -2.952,1.986 -0.678,1.636 0.104,3.524 1.74,4.202 0.117,0.05 0.237,0.07 0.356,0.107 -1.2,2.482 -2.582,4.858 -4.123,7.118 -0.09,-0.08 -0.165,-0.172 -0.262,-0.247 -0.527,-0.404 -1.141,-0.619 -1.76,-0.656 -1.032,-0.06 -2.076,0.372 -2.75,1.25 -1.078,1.405 -0.812,3.433 0.593,4.511 0.09,0.07 0.195,0.122 0.293,0.182 -1.793,2.076 -3.735,4.017 -5.811,5.809 -0.06,-0.1 -0.109,-0.199 -0.18,-0.291 -0.674,-0.879 -1.719,-1.312 -2.751,-1.251 -0.619,0.04 -1.233,0.252 -1.76,0.656 -1.405,1.079 -1.67,3.106 -0.592,4.511 0.07,0.1 0.164,0.175 0.247,0.261 -2.261,1.542 -4.637,2.923 -7.12,4.123 -0.03,-0.119 -0.06,-0.239 -0.107,-0.356 -0.508,-1.227 -1.697,-1.973 -2.95,-1.984 -0.418,0 -0.843,0.07 -1.252,0.244 -1.637,0.677 -2.419,2.566 -1.741,4.202 0.05,0.113 0.113,0.212 0.171,0.317 -2.568,0.897 -5.22,1.612 -7.944,2.127 0,-0.119 0,-0.237 -0.01,-0.358 -0.202,-1.536 -1.469,-2.682 -2.959,-2.79 -0.213,-0.01 -0.431,0 -0.651,0.02 -1.756,0.231 -3,1.854 -2.768,3.61 0.01,0.117 0.05,0.226 0.08,0.338 -1.358,0.1 -2.725,0.166 -4.109,0.166 -1.383,0 -2.751,-0.07 -4.109,-0.166 0.03,-0.112 0.06,-0.221 0.08,-0.338 0.231,-1.756 -1.015,-3.379 -2.771,-3.61 -0.219,-0.03 -0.436,-0.03 -0.649,-0.02 -1.49,0.108 -2.757,1.254 -2.959,2.79 -0.02,0.121 0,0.239 -0.01,0.358 -2.724,-0.515 -5.375,-1.229 -7.943,-2.125 0.06,-0.105 0.124,-0.205 0.171,-0.319 0.678,-1.636 -0.104,-3.526 -1.741,-4.204 -0.409,-0.17 -0.834,-0.247 -1.252,-0.244 -1.253,0.01 -2.443,0.759 -2.952,1.986 -0.05,0.117 -0.07,0.237 -0.107,0.356 -2.482,-1.2 -4.857,-2.582 -7.118,-4.123 0.08,-0.09 0.173,-0.165 0.247,-0.262 1.078,-1.406 0.811,-3.433 -0.594,-4.511 -0.527,-0.405 -1.141,-0.619 -1.76,-0.656 -1.031,-0.06 -2.077,0.372 -2.751,1.25 -0.07,0.09 -0.122,0.195 -0.182,0.293 -2.075,-1.792 -4.017,-3.733 -5.808,-5.809 0.1,-0.06 0.199,-0.11 0.292,-0.182 1.405,-1.078 1.671,-3.104 0.593,-4.509 -0.674,-0.878 -1.718,-1.312 -2.749,-1.25 -0.619,0.04 -1.233,0.251 -1.76,0.656 -0.1,0.07 -0.175,0.164 -0.261,0.247 -1.542,-2.261 -2.924,-4.637 -4.125,-7.12 0.119,-0.03 0.239,-0.06 0.356,-0.107 1.636,-0.678 2.418,-2.566 1.741,-4.202 -0.509,-1.228 -1.697,-1.974 -2.951,-1.984 -0.417,0 -0.843,0.07 -1.252,0.243 -0.113,0.05 -0.212,0.113 -0.317,0.171 -0.896,-2.568 -1.611,-5.22 -2.127,-7.944 0.12,0 0.237,0 0.358,-0.01 1.756,-0.231 3.002,-1.854 2.771,-3.61 -0.203,-1.536 -1.47,-2.68 -2.96,-2.788 -0.212,-0.01 -0.431,0 -0.65,0.02 -0.118,0.01 -0.226,0.05 -0.339,0.08 -0.1,-1.358 -0.166,-2.725 -0.166,-4.109 0,-1.383 0.07,-2.751 0.166,-4.109 0.113,0.03 0.221,0.06 0.339,0.08 1.756,0.231 3.377,-1.013 3.608,-2.769 0.231,-1.756 -1.013,-3.379 -2.769,-3.61 -0.121,-0.02 -0.239,0 -0.358,-0.01 0.516,-2.725 1.23,-5.378 2.127,-7.947 0.105,0.06 0.205,0.126 0.319,0.173 1.636,0.678 3.525,-0.104 4.202,-1.74 0.678,-1.637 -0.104,-3.525 -1.74,-4.203 -0.118,-0.05 -0.238,-0.07 -0.358,-0.107 1.201,-2.483 2.583,-4.859 4.125,-7.119 0.09,0.08 0.163,0.172 0.261,0.247 1.405,1.078 3.432,0.81 4.511,-0.595 1.078,-1.405 0.81,-3.431 -0.595,-4.509 -0.09,-0.07 -0.19,-0.128 -0.287,-0.187 1.79,-2.074 3.729,-4.013 5.803,-5.803 0.06,0.1 0.111,0.199 0.182,0.292 1.078,1.405 3.104,1.673 4.509,0.595 1.405,-1.079 1.673,-3.104 0.594,-4.51 -0.07,-0.1 -0.153,-0.186 -0.236,-0.271 2.258,-1.539 4.63,-2.917 7.109,-4.116 0.03,0.119 0.06,0.239 0.107,0.356 0.678,1.636 2.566,2.418 4.203,1.741 1.636,-0.678 2.418,-2.566 1.74,-4.203 -0.05,-0.112 -0.105,-0.216 -0.162,-0.321 2.566,-0.894 5.215,-1.608 7.936,-2.123 0,0.12 0,0.237 0.01,0.358 0.231,1.756 1.854,3.002 3.61,2.771 1.756,-0.232 3,-1.854 2.769,-3.61 -0.02,-0.117 -0.05,-0.227 -0.07,-0.339 1.356,-0.1 2.721,-0.166 4.103,-0.166 z" color="#000" enable-background="accumulate" font-family="sans-serif" font-weight="400" overflow="visible"/><path style="line-height:normal;text-indent:0;text-align:start;text-decoration-line:none;text-decoration-style:solid;text-decoration-color:#000;text-transform:none;block-progression:tb;white-space:normal;isolation:auto;mix-blend-mode:normal;solid-color:#000;solid-opacity:1" fill="#3d6591" d="m -29944.213,11758.284 -1.898,33.22 1.279,10.65 c -0.291,0.03 -0.575,0.07 -0.859,0.12 l -1.524,-10.623 -10.431,-31.598 -0.871,0.233 6.765,32.58 3.992,9.962 c -0.272,0.101 -0.539,0.211 -0.8,0.331 l -4.22,-9.866 -18.256,-27.823 -0.781,0.452 14.967,29.719 6.436,8.589 c -0.236,0.167 -0.47,0.337 -0.693,0.522 l -6.625,-8.433 -24.833,-22.149 -0.639,0.638 22.149,24.833 8.433,6.625 c -0.184,0.223 -0.354,0.457 -0.522,0.693 l -8.588,-6.434 -29.719,-14.967 -0.452,0.779 27.821,18.256 9.866,4.22 c -0.121,0.262 -0.228,0.53 -0.33,0.802 l -9.961,-3.994 -32.58,-6.765 -0.235,0.871 31.598,10.433 10.625,1.522 c -0.05,0.284 -0.09,0.568 -0.12,0.859 l -10.65,-1.279 -33.222,1.9 0,0.901 33.222,1.897 10.65,-1.277 c 0.03,0.291 0.07,0.575 0.12,0.859 l -10.625,1.522 -31.598,10.433 0.235,0.871 32.58,-6.765 9.961,-3.994 c 0.101,0.272 0.211,0.539 0.332,0.801 l -9.868,4.221 -27.821,18.254 0.452,0.781 29.719,-14.966 8.588,-6.437 c 0.168,0.237 0.339,0.47 0.524,0.693 l -8.435,6.627 -22.149,24.833 0.639,0.637 24.833,-22.147 6.627,-8.435 c 0.222,0.184 0.455,0.354 0.691,0.522 l -6.436,8.59 -14.967,29.719 0.781,0.45 18.256,-27.82 4.22,-9.869 c 0.262,0.121 0.53,0.231 0.802,0.332 l -3.994,9.962 -6.765,32.581 0.871,0.233 10.431,-31.598 1.524,-10.624 c 0.284,0.05 0.568,0.09 0.859,0.119 l -1.279,10.65 1.898,33.222 0.902,0 1.898,-33.222 -1.279,-10.65 c 0.291,-0.03 0.575,-0.07 0.859,-0.119 l 1.524,10.624 10.431,31.598 0.871,-0.233 -6.765,-32.581 -3.994,-9.962 c 0.273,-0.101 0.54,-0.211 0.802,-0.332 l 4.22,9.869 18.256,27.82 0.781,-0.45 -14.967,-29.719 -6.436,-8.59 c 0.236,-0.168 0.469,-0.338 0.691,-0.522 l 6.627,8.435 24.833,22.147 0.639,-0.637 -22.149,-24.833 -8.435,-6.627 c 0.185,-0.223 0.356,-0.456 0.524,-0.693 l 8.588,6.437 29.719,14.966 0.452,-0.781 -27.821,-18.254 -9.868,-4.221 c 0.121,-0.262 0.231,-0.529 0.332,-0.801 l 9.961,3.994 32.58,6.765 0.235,-0.871 -31.598,-10.433 -10.625,-1.522 c 0.05,-0.284 0.09,-0.568 0.12,-0.859 l 10.65,1.277 33.222,-1.897 0,-0.901 -33.222,-1.9 -10.65,1.279 c -0.03,-0.291 -0.07,-0.575 -0.12,-0.859 l 10.625,-1.522 31.598,-10.433 -0.235,-0.871 -32.58,6.765 -9.961,3.994 c -0.102,-0.272 -0.209,-0.54 -0.33,-0.802 l 9.866,-4.22 27.821,-18.256 -0.452,-0.779 -29.719,14.967 -8.588,6.434 c -0.168,-0.236 -0.338,-0.47 -0.522,-0.693 l 8.433,-6.625 22.149,-24.833 -0.639,-0.638 -24.833,22.149 -6.625,8.433 c -0.223,-0.185 -0.457,-0.355 -0.693,-0.522 l 6.436,-8.589 14.967,-29.719 -0.781,-0.452 -18.256,27.823 -4.22,9.866 c -0.261,-0.12 -0.528,-0.23 -0.8,-0.331 l 3.992,-9.962 6.765,-32.58 -0.871,-0.233 -10.431,31.598 -1.524,10.623 c -0.284,-0.05 -0.568,-0.09 -0.859,-0.12 l 1.279,-10.65 -1.898,-33.22 -0.902,0 z" color="#000" enable-background="accumulate" font-family="sans-serif" font-weight="400" overflow="visible"/><path d="m -30287.762,11589.61 688,0 0,136 -688,0 0,-136 z" style="line-height:normal;text-indent:0;text-align:start;text-decoration-line:none;text-decoration-style:solid;text-decoration-color:#000;text-transform:none;block-progression:tb;white-space:normal;isolation:auto;mix-blend-mode:normal;solid-color:#000;solid-opacity:1" fill="#fd982f" color="#000" enable-background="accumulate" font-family="sans-serif" font-weight="400" overflow="visible"/><path d="m -30287.762,11901.61 688,0 0,136.002 -688,0 0,-136.002 z" style="line-height:normal;text-indent:0;text-align:start;text-decoration-line:none;text-decoration-style:solid;text-decoration-color:#000;text-transform:none;block-progression:tb;white-space:normal;isolation:auto;mix-blend-mode:normal;solid-color:#000;solid-opacity:1" fill="#3ab37c" color="#000" enable-background="accumulate" font-family="sans-serif" font-weight="400" overflow="visible"/></g></svg>