<?xml version="1.0" encoding="UTF-8"?>
<svg xmlns="http://www.w3.org/2000/svg" xmlns:xlink="http://www.w3.org/1999/xlink" viewBox="0 0 48 48" width="48px" height="48px">
<g id="surface5045141">
<path style="fill-rule:nonzero;fill:rgb(21.960784%,55.686277%,23.529412%);fill-opacity:1;stroke-width:2;stroke-linecap:butt;stroke-linejoin:round;stroke:rgb(0%,0%,0%);stroke-opacity:1;stroke-miterlimit:10;" d="M 61.642548 68.520945 C 61.968069 68.336955 62.336049 68.252037 62.704029 68.252037 C 63.072009 68.252037 63.43999 68.336955 63.76551 68.520945 L 81.357788 78.244111 C 82.00883 78.612091 82.419269 79.291438 82.419269 80.013245 L 82.419269 99.47373 C 82.419269 100.20969 82.00883 100.874885 81.357788 101.242865 L 63.779663 110.980183 C 63.114469 111.348163 62.307743 111.348163 61.656702 110.980183 L 44.064424 101.242865 C 43.399229 100.874885 43.002943 100.20969 43.002943 99.47373 L 43.002943 80.013245 C 43.002943 79.291438 43.399229 78.612091 44.064424 78.244111 L 61.642548 68.520945 M 152.109032 86.042457 C 152.165644 86.014151 152.23641 85.999998 152.293022 85.999998 C 152.349634 85.999998 152.4204 86.014151 152.462859 86.042457 L 155.392546 87.670061 C 155.505771 87.726674 155.576536 87.839898 155.576536 87.953123 L 155.576536 91.208331 C 155.576536 91.321556 155.505771 91.434781 155.406699 91.505546 L 152.477012 93.118997 C 152.363787 93.189762 152.222257 93.189762 152.109032 93.118997 L 149.179344 91.505546 C 149.080273 91.434781 149.009508 91.321556 149.009508 91.208331 L 149.009508 87.953123 C 149.009508 87.839898 149.080273 87.726674 149.179344 87.670061 L 152.109032 86.042457 " transform="matrix(0.276,0,0,0.276,0.264,0.264)"/>
<path style="fill-rule:nonzero;fill:rgb(21.568628%,27.843139%,30.980393%);fill-opacity:1;stroke-width:2;stroke-linecap:butt;stroke-linejoin:round;stroke:rgb(0%,0%,0%);stroke-opacity:1;stroke-miterlimit:10;" d="M 128.997053 49.400135 L 128.997053 99.318046 C 128.997053 100.039853 128.600767 100.719201 127.949725 101.073028 L 110.357448 110.810346 C 109.706406 111.178326 108.885527 111.178326 108.234486 110.810346 L 90.642208 101.073028 C 89.991166 100.705048 89.580727 100.039853 89.580727 99.318046 L 89.580727 79.843409 C 89.580727 79.121601 89.991166 78.442254 90.642208 78.088427 L 108.234486 68.351108 C 108.560007 68.167118 108.927987 68.0822 109.295967 68.0822 C 109.663947 68.0822 110.031927 68.167118 110.357448 68.351108 L 118.254866 72.72441 L 118.254866 43.866281 C 118.254866 43.569066 118.424703 43.286004 118.679458 43.116168 C 118.948367 42.960484 119.273888 42.960484 119.542796 43.116168 L 128.105409 47.885755 C 128.657379 48.197123 128.997053 48.777399 128.997053 49.400135 Z M 118.254866 94.010641 L 118.254866 85.164966 C 118.254866 84.825292 118.070876 84.513925 117.759508 84.358241 L 109.777171 79.928327 C 109.621488 79.857562 109.465804 79.800949 109.295967 79.800949 C 109.12613 79.800949 108.956293 79.843409 108.814762 79.928327 L 100.818272 84.358241 C 100.521058 84.513925 100.337067 84.825292 100.337067 85.150813 L 100.337067 94.010641 C 100.337067 94.336162 100.521058 94.64753 100.818272 94.803213 L 108.814762 99.233127 C 109.111977 99.402964 109.479957 99.402964 109.777171 99.233127 L 117.773661 94.803213 C 118.070876 94.64753 118.254866 94.336162 118.254866 94.010641 Z M 118.254866 94.010641 " transform="matrix(0.276,0,0,0.276,0.264,0.264)"/>
<path style="fill-rule:nonzero;fill:rgb(18.039216%,49.019608%,19.607843%);fill-opacity:1;stroke-width:2;stroke-linecap:butt;stroke-linejoin:round;stroke:rgb(0%,0%,0%);stroke-opacity:1;stroke-miterlimit:10;" d="M 61.642548 68.520945 C 61.968069 68.336955 62.336049 68.252037 62.704029 68.252037 C 63.072009 68.252037 63.43999 68.336955 63.76551 68.520945 L 81.357788 78.244111 C 82.00883 78.612091 82.419269 79.291438 82.419269 80.013245 L 63.779663 110.980183 C 63.114469 111.348163 62.307743 111.348163 61.656702 110.980183 L 44.064424 101.242865 C 43.399229 100.874885 43.002943 100.20969 43.002943 99.47373 L 61.642548 68.520945 " transform="matrix(0.276,0,0,0.276,0.264,0.264)"/>
<path style="fill-rule:nonzero;fill:rgb(29.803923%,68.627453%,31.37255%);fill-opacity:1;stroke-width:2;stroke-linecap:butt;stroke-linejoin:round;stroke:rgb(0%,0%,0%);stroke-opacity:1;stroke-miterlimit:10;" d="M 61.642548 68.520945 C 61.968069 68.336955 62.336049 68.252037 62.704029 68.252037 C 63.072009 68.252037 63.43999 68.336955 63.76551 68.520945 L 82.419269 99.47373 C 82.419269 100.20969 82.00883 100.874885 81.357788 101.242865 L 63.76551 110.980183 C 63.114469 111.348163 62.307743 111.348163 61.642548 110.980183 L 43.002943 80.013245 C 43.002943 79.291438 43.399229 78.612091 44.064424 78.244111 L 61.642548 68.520945 " transform="matrix(0.276,0,0,0.276,0.264,0.264)"/>
<path style="fill-rule:nonzero;fill:rgb(21.568628%,27.843139%,30.980393%);fill-opacity:1;stroke-width:2;stroke-linecap:butt;stroke-linejoin:round;stroke:rgb(0%,0%,0%);stroke-opacity:1;stroke-miterlimit:10;" d="M 171.994108 79.900021 L 171.994108 86.636887 C 171.994108 87.245469 171.668588 87.811592 171.144924 88.12296 L 162.554004 93.118997 C 162.285096 93.274681 161.945422 93.274681 161.676514 93.118997 C 161.407605 92.963313 161.251921 92.680252 161.251921 92.368884 L 161.251921 85.164966 C 161.251921 84.825292 161.067931 84.528078 160.78487 84.372394 L 152.774227 79.94248 C 152.618543 79.857562 152.462859 79.815102 152.293022 79.815102 C 152.123185 79.815102 151.953348 79.857562 151.797664 79.94248 L 151.811817 79.94248 L 143.801174 84.372394 C 143.518113 84.528078 143.334123 84.825292 143.334123 85.164966 L 143.334123 93.996488 C 143.334123 94.336162 143.518113 94.64753 143.815327 94.817367 L 161.464217 104.441461 C 162.200178 104.8519 162.214331 105.913381 161.464217 106.32382 L 153.354503 110.810346 C 152.703461 111.178326 151.896736 111.178326 151.231541 110.810346 L 133.653416 101.073028 C 132.988222 100.719201 132.577782 100.0257 132.577782 99.275587 L 132.577782 79.885868 C 132.577782 79.135755 132.988222 78.442254 133.653416 78.088427 L 151.231541 68.351108 C 151.557062 68.167118 151.925042 68.0822 152.293022 68.0822 C 152.661002 68.0822 153.028982 68.167118 153.354503 68.351108 L 170.932627 78.088427 C 171.597822 78.442254 171.994108 79.135755 171.994108 79.900021 Z M 39.422214 79.885868 L 39.422214 106.635188 C 39.422214 106.946556 39.252377 107.229617 38.983468 107.385301 C 38.71456 107.540985 38.389039 107.540985 38.12013 107.385301 L 29.529211 102.389264 C 28.991394 102.092049 28.665873 101.511773 28.665873 100.903191 L 28.665873 85.164966 C 28.665873 84.825292 28.481883 84.528078 28.198822 84.372394 L 20.188179 79.928327 C 20.046648 79.857562 19.876811 79.815102 19.706974 79.815102 C 19.537137 79.815102 19.381453 79.857562 19.22577 79.928327 L 11.215127 84.358241 C 10.932065 84.513925 10.748075 84.825292 10.748075 85.150813 L 10.748075 100.889038 C 10.748075 101.511773 10.422554 102.077896 9.89889 102.389264 L 1.293818 107.385301 C 1.039062 107.540985 0.699389 107.540985 0.43048 107.385301 C 0.161572 107.229617 0.0058877 106.946556 0.0058877 106.635188 L 0.0058877 79.885868 C 0.0058877 79.135755 0.402174 78.442254 1.067369 78.088427 L 18.645493 68.351108 C 18.971014 68.167118 19.338994 68.0822 19.706974 68.0822 C 20.074954 68.0822 20.442934 68.167118 20.768455 68.351108 L 38.34658 78.088427 C 39.011774 78.442254 39.422214 79.135755 39.422214 79.885868 Z M 39.422214 79.885868 " transform="matrix(0.276,0,0,0.276,0.264,0.264)"/>
<path style=" stroke:none;fill-rule:nonzero;fill:rgb(21.960784%,55.686277%,23.529412%);fill-opacity:1;" d="M 17.277344 19.175781 L 12.425781 21.859375 C 12.242188 21.960938 12.132812 22.148438 12.132812 22.347656 L 12.132812 27.71875 C 12.132812 27.921875 12.242188 28.105469 12.425781 28.207031 L 17.28125 30.894531 C 17.460938 30.996094 17.683594 30.996094 17.867188 30.894531 L 22.71875 28.207031 C 22.898438 28.105469 23.011719 27.921875 23.011719 27.71875 L 23.011719 22.347656 C 23.011719 22.148438 22.898438 21.960938 22.71875 21.859375 L 17.867188 19.175781 C 17.773438 19.125 17.671875 19.101562 17.570312 19.101562 C 17.46875 19.101562 17.367188 19.125 17.277344 19.175781 M 42.246094 24.011719 L 41.4375 24.460938 C 41.410156 24.476562 41.390625 24.507812 41.390625 24.539062 L 41.390625 25.4375 C 41.390625 25.46875 41.410156 25.5 41.4375 25.519531 L 42.246094 25.964844 C 42.277344 25.984375 42.316406 25.984375 42.347656 25.964844 L 43.15625 25.519531 C 43.183594 25.5 43.203125 25.46875 43.203125 25.4375 L 43.203125 24.539062 C 43.203125 24.507812 43.183594 24.476562 43.152344 24.460938 L 42.34375 24.011719 C 42.332031 24.003906 42.3125 24 42.296875 24 C 42.28125 24 42.261719 24.003906 42.246094 24.011719 "/>
<path style=" stroke:none;fill-rule:nonzero;fill:rgb(21.568628%,27.843139%,30.980393%);fill-opacity:1;" d="M 35.621094 13.480469 L 33.257812 12.164062 C 33.183594 12.121094 33.09375 12.121094 33.019531 12.164062 C 32.949219 12.210938 32.902344 12.289062 32.902344 12.371094 L 32.902344 20.335938 L 30.722656 19.128906 C 30.632812 19.078125 30.53125 19.054688 30.429688 19.054688 C 30.328125 19.054688 30.226562 19.078125 30.136719 19.128906 L 25.28125 21.816406 C 25.101562 21.914062 24.988281 22.101562 24.988281 22.300781 L 24.988281 27.675781 C 24.988281 27.875 25.101562 28.058594 25.28125 28.160156 L 30.136719 30.847656 C 30.316406 30.949219 30.542969 30.949219 30.722656 30.847656 L 35.578125 28.160156 C 35.757812 28.0625 35.867188 27.875 35.867188 27.675781 L 35.867188 13.898438 C 35.867188 13.726562 35.773438 13.566406 35.621094 13.480469 Z M 32.769531 26.429688 L 30.5625 27.652344 C 30.480469 27.699219 30.378906 27.699219 30.296875 27.652344 L 28.089844 26.429688 C 28.007812 26.386719 27.957031 26.300781 27.957031 26.210938 L 27.957031 23.765625 C 27.957031 23.675781 28.007812 23.589844 28.089844 23.546875 L 30.296875 22.324219 C 30.335938 22.300781 30.382812 22.289062 30.429688 22.289062 C 30.476562 22.289062 30.519531 22.304688 30.5625 22.324219 L 32.765625 23.546875 C 32.851562 23.589844 32.902344 23.675781 32.902344 23.769531 L 32.902344 26.210938 C 32.902344 26.300781 32.851562 26.386719 32.769531 26.429688 Z M 32.769531 26.429688 "/>
<path style=" stroke:none;fill-rule:nonzero;fill:rgb(18.039216%,49.019608%,19.607843%);fill-opacity:1;" d="M 17.277344 19.175781 L 12.132812 27.71875 C 12.132812 27.921875 12.242188 28.105469 12.425781 28.207031 L 17.28125 30.894531 C 17.460938 30.996094 17.683594 30.996094 17.867188 30.894531 L 23.011719 22.347656 C 23.011719 22.148438 22.898438 21.960938 22.71875 21.859375 L 17.867188 19.175781 C 17.773438 19.125 17.671875 19.101562 17.570312 19.101562 C 17.46875 19.101562 17.367188 19.125 17.277344 19.175781 "/>
<path style=" stroke:none;fill-rule:nonzero;fill:rgb(29.803923%,68.627453%,31.37255%);fill-opacity:1;" d="M 17.277344 19.175781 L 12.425781 21.859375 C 12.242188 21.960938 12.132812 22.148438 12.132812 22.347656 L 17.277344 30.894531 C 17.460938 30.996094 17.683594 30.996094 17.867188 30.894531 L 22.71875 28.207031 C 22.898438 28.105469 23.011719 27.921875 23.011719 27.71875 L 17.867188 19.175781 C 17.773438 19.125 17.671875 19.101562 17.570312 19.101562 C 17.46875 19.101562 17.367188 19.125 17.277344 19.175781 "/>
<path style=" stroke:none;fill-rule:nonzero;fill:rgb(21.568628%,27.843139%,30.980393%);fill-opacity:1;" d="M 47.441406 21.816406 L 42.589844 19.128906 C 42.5 19.078125 42.398438 19.054688 42.296875 19.054688 C 42.195312 19.054688 42.09375 19.078125 42.003906 19.128906 L 37.152344 21.816406 C 36.96875 21.914062 36.855469 22.105469 36.855469 22.3125 L 36.855469 27.664062 C 36.855469 27.871094 36.96875 28.0625 37.152344 28.160156 L 42.003906 30.847656 C 42.1875 30.949219 42.410156 30.949219 42.589844 30.847656 L 44.828125 29.609375 C 45.035156 29.496094 45.03125 29.203125 44.828125 29.089844 L 39.957031 26.433594 C 39.875 26.386719 39.824219 26.300781 39.824219 26.207031 L 39.824219 23.769531 C 39.824219 23.675781 39.875 23.59375 39.953125 23.550781 L 42.164062 22.328125 L 42.160156 22.328125 C 42.203125 22.304688 42.25 22.292969 42.296875 22.292969 C 42.34375 22.292969 42.386719 22.304688 42.429688 22.328125 L 44.640625 23.550781 C 44.71875 23.59375 44.769531 23.675781 44.769531 23.769531 L 44.769531 25.757812 C 44.769531 25.84375 44.8125 25.921875 44.886719 25.964844 C 44.960938 26.007812 45.054688 26.007812 45.128906 25.964844 L 47.5 24.585938 C 47.644531 24.5 47.734375 24.34375 47.734375 24.175781 L 47.734375 22.316406 C 47.734375 22.105469 47.625 21.914062 47.441406 21.816406 Z M 10.847656 21.816406 L 5.996094 19.128906 C 5.90625 19.078125 5.804688 19.054688 5.703125 19.054688 C 5.601562 19.054688 5.5 19.078125 5.410156 19.128906 L 0.558594 21.816406 C 0.375 21.914062 0.265625 22.105469 0.265625 22.3125 L 0.265625 29.695312 C 0.265625 29.78125 0.308594 29.859375 0.382812 29.902344 C 0.457031 29.945312 0.550781 29.945312 0.621094 29.902344 L 2.996094 28.523438 C 3.140625 28.4375 3.230469 28.28125 3.230469 28.109375 L 3.230469 23.765625 C 3.230469 23.675781 3.28125 23.589844 3.359375 23.546875 L 5.570312 22.324219 C 5.613281 22.304688 5.65625 22.292969 5.703125 22.292969 C 5.75 22.292969 5.796875 22.304688 5.835938 22.324219 L 8.046875 23.550781 C 8.125 23.59375 8.175781 23.675781 8.175781 23.769531 L 8.175781 28.113281 C 8.175781 28.28125 8.265625 28.441406 8.414062 28.523438 L 10.785156 29.902344 C 10.859375 29.945312 10.949219 29.945312 11.023438 29.902344 C 11.097656 29.859375 11.144531 29.78125 11.144531 29.695312 L 11.144531 22.3125 C 11.144531 22.105469 11.03125 21.914062 10.847656 21.816406 Z M 10.847656 21.816406 "/>
</g>
</svg>
